<?xml version="1.0" encoding="UTF-8"?>
<svg xmlns="http://www.w3.org/2000/svg" xmlns:xlink="http://www.w3.org/1999/xlink" width="375pt" height="374.999991pt" viewBox="0 0 375 374.999991" version="1.2">
<defs>
<clipPath id="clip1">
  <path d="M 5.957031 0 L 374.921875 0 L 374.921875 368.964844 L 5.957031 368.964844 Z M 5.957031 0 "/>
</clipPath>
</defs>
<g id="surface1">
<g clip-path="url(#clip1)" clip-rule="nonzero">
<path style=" stroke:none;fill-rule:nonzero;fill:rgb(0%,0%,0%);fill-opacity:1;" d="M 57.644531 0 C 48.996094 0 41.515625 6.292969 40.046875 14.820312 L 11.910156 178.019531 L 11.910156 249.945312 C 11.910156 259.734375 19.972656 267.796875 29.761719 267.796875 L 160.683594 267.796875 L 160.683594 297.550781 L 119.027344 297.550781 C 109.238281 297.550781 101.175781 305.617188 101.175781 315.40625 L 59.515625 315.40625 C 59.125 315.398438 58.730469 315.433594 58.34375 315.503906 C 57.957031 315.578125 57.578125 315.6875 57.214844 315.835938 C 56.847656 315.980469 56.5 316.164062 56.171875 316.378906 C 55.839844 316.59375 55.535156 316.839844 55.253906 317.117188 C 54.972656 317.394531 54.722656 317.695312 54.503906 318.023438 C 54.28125 318.351562 54.09375 318.695312 53.941406 319.058594 C 53.789062 319.421875 53.675781 319.796875 53.597656 320.183594 C 53.519531 320.570312 53.480469 320.960938 53.480469 321.355469 C 53.480469 321.75 53.519531 322.140625 53.597656 322.527344 C 53.675781 322.914062 53.789062 323.289062 53.941406 323.652344 C 54.09375 324.015625 54.28125 324.363281 54.503906 324.6875 C 54.722656 325.015625 54.972656 325.316406 55.253906 325.59375 C 55.535156 325.871094 55.839844 326.117188 56.171875 326.332031 C 56.5 326.550781 56.847656 326.730469 57.214844 326.878906 C 57.578125 327.027344 57.957031 327.136719 58.34375 327.207031 C 58.730469 327.28125 59.125 327.3125 59.515625 327.308594 L 113.078125 327.308594 L 113.078125 315.40625 C 113.078125 312.042969 115.664062 309.453125 119.027344 309.453125 L 172.585938 309.453125 L 172.585938 267.796875 L 208.292969 267.796875 L 208.292969 309.453125 L 261.851562 309.453125 C 265.214844 309.453125 267.804688 312.042969 267.804688 315.40625 L 267.804688 327.308594 L 321.363281 327.308594 C 321.757812 327.3125 322.148438 327.28125 322.535156 327.207031 C 322.925781 327.136719 323.300781 327.027344 323.667969 326.878906 C 324.03125 326.730469 324.378906 326.550781 324.710938 326.332031 C 325.039062 326.117188 325.34375 325.871094 325.625 325.59375 C 325.90625 325.316406 326.15625 325.015625 326.378906 324.6875 C 326.597656 324.363281 326.785156 324.015625 326.9375 323.652344 C 327.089844 323.289062 327.203125 322.914062 327.28125 322.527344 C 327.359375 322.140625 327.398438 321.75 327.398438 321.355469 C 327.398438 320.960938 327.359375 320.570312 327.28125 320.183594 C 327.203125 319.796875 327.089844 319.421875 326.9375 319.058594 C 326.785156 318.695312 326.597656 318.351562 326.378906 318.023438 C 326.15625 317.695312 325.90625 317.394531 325.625 317.117188 C 325.34375 316.839844 325.039062 316.59375 324.710938 316.378906 C 324.378906 316.164062 324.03125 315.980469 323.667969 315.835938 C 323.300781 315.6875 322.925781 315.578125 322.535156 315.503906 C 322.148438 315.433594 321.757812 315.398438 321.363281 315.40625 L 279.707031 315.40625 C 279.707031 305.617188 271.640625 297.550781 261.851562 297.550781 L 220.195312 297.550781 L 220.195312 267.796875 L 351.117188 267.796875 C 360.90625 267.796875 368.972656 259.734375 368.972656 249.945312 L 368.972656 178.019531 L 340.832031 14.820312 C 339.367188 6.296875 331.886719 0 323.234375 0 Z M 57.644531 11.902344 L 323.234375 11.902344 C 326.175781 11.902344 328.605469 13.953125 329.105469 16.84375 L 357.070312 179.042969 L 357.070312 249.945312 C 357.070312 253.304688 354.480469 255.894531 351.117188 255.894531 L 29.761719 255.894531 C 26.398438 255.894531 23.8125 253.304688 23.8125 249.945312 L 23.8125 179.066406 L 51.777344 16.84375 C 52.273438 13.957031 54.714844 11.902344 57.644531 11.902344 Z M 190.441406 59.511719 C 143.636719 59.511719 105.382812 76.957031 105.382812 76.957031 C 105.382812 76.957031 89.273438 103.191406 89.273438 112.359375 L 89.273438 121.996094 C 89.273438 126.925781 93.265625 130.921875 98.199219 130.921875 L 139.855469 130.921875 C 144.785156 130.921875 148.78125 126.925781 148.78125 121.996094 L 148.78125 92.242188 C 148.78125 92.242188 168.523438 83.316406 190.441406 83.316406 C 212.359375 83.316406 232.097656 92.242188 232.097656 92.242188 L 232.097656 121.996094 C 232.097656 126.925781 236.089844 130.921875 241.023438 130.921875 L 282.679688 130.921875 C 287.609375 130.921875 291.609375 126.925781 291.609375 121.996094 L 291.609375 112.359375 C 291.609375 103.183594 275.5 76.957031 275.5 76.957031 C 275.5 76.957031 237.246094 59.511719 190.441406 59.511719 Z M 35.714844 172.582031 C 35.324219 172.582031 34.933594 172.617188 34.550781 172.695312 C 34.167969 172.769531 33.796875 172.882812 33.4375 173.035156 C 33.074219 173.183594 32.730469 173.367188 32.40625 173.582031 C 32.082031 173.800781 31.78125 174.046875 31.503906 174.324219 C 31.230469 174.601562 30.980469 174.898438 30.765625 175.226562 C 30.546875 175.550781 30.363281 175.894531 30.214844 176.253906 C 30.066406 176.613281 29.953125 176.988281 29.875 177.371094 C 29.800781 177.753906 29.761719 178.140625 29.761719 178.53125 C 29.761719 178.921875 29.800781 179.308594 29.875 179.691406 C 29.953125 180.074219 30.066406 180.449219 30.214844 180.808594 C 30.363281 181.167969 30.546875 181.511719 30.765625 181.835938 C 30.980469 182.164062 31.230469 182.464844 31.503906 182.738281 C 31.78125 183.015625 32.082031 183.261719 32.40625 183.480469 C 32.730469 183.695312 33.074219 183.878906 33.4375 184.03125 C 33.796875 184.179688 34.167969 184.292969 34.550781 184.367188 C 34.933594 184.445312 35.324219 184.480469 35.714844 184.480469 C 36.105469 184.480469 36.492188 184.445312 36.875 184.367188 C 37.257812 184.292969 37.628906 184.179688 37.992188 184.03125 C 38.351562 183.878906 38.695312 183.695312 39.019531 183.480469 C 39.34375 183.261719 39.644531 183.015625 39.921875 182.738281 C 40.199219 182.464844 40.445312 182.164062 40.660156 181.835938 C 40.878906 181.511719 41.0625 181.167969 41.210938 180.808594 C 41.359375 180.449219 41.472656 180.074219 41.550781 179.691406 C 41.625 179.308594 41.664062 178.921875 41.664062 178.53125 C 41.664062 178.140625 41.625 177.753906 41.550781 177.371094 C 41.472656 176.988281 41.359375 176.613281 41.210938 176.253906 C 41.0625 175.894531 40.878906 175.550781 40.660156 175.226562 C 40.445312 174.898438 40.199219 174.601562 39.921875 174.324219 C 39.644531 174.046875 39.34375 173.800781 39.019531 173.582031 C 38.695312 173.367188 38.351562 173.183594 37.992188 173.035156 C 37.628906 172.882812 37.257812 172.769531 36.875 172.695312 C 36.492188 172.617188 36.105469 172.582031 35.714844 172.582031 Z M 59.515625 172.582031 C 59.125 172.582031 58.738281 172.617188 58.355469 172.695312 C 57.972656 172.769531 57.601562 172.882812 57.238281 173.035156 C 56.878906 173.183594 56.535156 173.367188 56.210938 173.582031 C 55.886719 173.800781 55.585938 174.046875 55.308594 174.324219 C 55.03125 174.601562 54.785156 174.898438 54.570312 175.226562 C 54.351562 175.550781 54.167969 175.894531 54.019531 176.253906 C 53.871094 176.613281 53.757812 176.988281 53.679688 177.371094 C 53.605469 177.753906 53.566406 178.140625 53.566406 178.53125 C 53.566406 178.921875 53.605469 179.308594 53.679688 179.691406 C 53.757812 180.074219 53.871094 180.449219 54.019531 180.808594 C 54.167969 181.167969 54.351562 181.511719 54.570312 181.835938 C 54.785156 182.164062 55.03125 182.464844 55.308594 182.738281 C 55.585938 183.015625 55.886719 183.261719 56.210938 183.480469 C 56.535156 183.695312 56.878906 183.878906 57.238281 184.03125 C 57.601562 184.179688 57.972656 184.292969 58.355469 184.367188 C 58.738281 184.445312 59.125 184.480469 59.515625 184.480469 C 59.90625 184.480469 60.296875 184.445312 60.679688 184.367188 C 61.0625 184.292969 61.433594 184.179688 61.792969 184.03125 C 62.15625 183.878906 62.5 183.695312 62.824219 183.480469 C 63.148438 183.261719 63.449219 183.015625 63.726562 182.738281 C 64 182.464844 64.25 182.164062 64.464844 181.835938 C 64.683594 181.511719 64.867188 181.167969 65.015625 180.808594 C 65.164062 180.449219 65.277344 180.074219 65.355469 179.691406 C 65.429688 179.308594 65.46875 178.921875 65.46875 178.53125 C 65.46875 178.140625 65.429688 177.753906 65.355469 177.371094 C 65.277344 176.988281 65.164062 176.613281 65.015625 176.253906 C 64.867188 175.894531 64.683594 175.550781 64.464844 175.226562 C 64.25 174.898438 64 174.601562 63.726562 174.324219 C 63.449219 174.046875 63.148438 173.800781 62.824219 173.582031 C 62.5 173.367188 62.15625 173.183594 61.792969 173.035156 C 61.433594 172.882812 61.0625 172.769531 60.679688 172.695312 C 60.296875 172.617188 59.90625 172.582031 59.515625 172.582031 Z M 83.320312 172.582031 C 82.929688 172.582031 82.542969 172.617188 82.160156 172.695312 C 81.777344 172.769531 81.40625 172.882812 81.042969 173.035156 C 80.683594 173.183594 80.339844 173.367188 80.015625 173.582031 C 79.691406 173.800781 79.390625 174.046875 79.113281 174.324219 C 78.835938 174.601562 78.589844 174.898438 78.375 175.226562 C 78.15625 175.550781 77.972656 175.894531 77.824219 176.253906 C 77.675781 176.613281 77.5625 176.988281 77.484375 177.371094 C 77.410156 177.753906 77.371094 178.140625 77.371094 178.53125 C 77.371094 178.921875 77.410156 179.308594 77.484375 179.691406 C 77.5625 180.074219 77.675781 180.449219 77.824219 180.808594 C 77.972656 181.167969 78.15625 181.511719 78.375 181.835938 C 78.589844 182.164062 78.835938 182.464844 79.113281 182.738281 C 79.390625 183.015625 79.691406 183.261719 80.015625 183.480469 C 80.339844 183.695312 80.683594 183.878906 81.042969 184.03125 C 81.40625 184.179688 81.777344 184.292969 82.160156 184.367188 C 82.542969 184.445312 82.929688 184.480469 83.320312 184.480469 C 83.710938 184.480469 84.097656 184.445312 84.484375 184.367188 C 84.867188 184.292969 85.238281 184.179688 85.597656 184.03125 C 85.960938 183.878906 86.304688 183.695312 86.628906 183.480469 C 86.953125 183.261719 87.253906 183.015625 87.53125 182.738281 C 87.804688 182.464844 88.050781 182.164062 88.269531 181.835938 C 88.488281 181.511719 88.671875 181.167969 88.820312 180.808594 C 88.96875 180.449219 89.082031 180.074219 89.160156 179.691406 C 89.234375 179.308594 89.273438 178.921875 89.273438 178.53125 C 89.273438 178.140625 89.234375 177.753906 89.160156 177.371094 C 89.082031 176.988281 88.96875 176.613281 88.820312 176.253906 C 88.671875 175.894531 88.488281 175.550781 88.269531 175.226562 C 88.050781 174.898438 87.804688 174.601562 87.53125 174.324219 C 87.253906 174.046875 86.953125 173.800781 86.628906 173.582031 C 86.304688 173.367188 85.960938 173.183594 85.597656 173.035156 C 85.238281 172.882812 84.867188 172.769531 84.484375 172.695312 C 84.097656 172.617188 83.710938 172.582031 83.320312 172.582031 Z M 107.125 172.582031 C 106.734375 172.582031 106.347656 172.617188 105.964844 172.695312 C 105.582031 172.769531 105.210938 172.882812 104.847656 173.035156 C 104.488281 173.183594 104.144531 173.367188 103.820312 173.582031 C 103.496094 173.800781 103.195312 174.046875 102.917969 174.324219 C 102.640625 174.601562 102.394531 174.898438 102.175781 175.226562 C 101.960938 175.550781 101.777344 175.894531 101.628906 176.253906 C 101.476562 176.613281 101.367188 176.988281 101.289062 177.371094 C 101.210938 177.753906 101.175781 178.140625 101.175781 178.53125 C 101.175781 178.921875 101.210938 179.308594 101.289062 179.691406 C 101.367188 180.074219 101.476562 180.449219 101.628906 180.808594 C 101.777344 181.167969 101.960938 181.511719 102.175781 181.835938 C 102.394531 182.164062 102.640625 182.464844 102.917969 182.738281 C 103.195312 183.015625 103.496094 183.261719 103.820312 183.480469 C 104.144531 183.695312 104.488281 183.878906 104.847656 184.03125 C 105.210938 184.179688 105.582031 184.292969 105.964844 184.367188 C 106.347656 184.445312 106.734375 184.480469 107.125 184.480469 C 107.515625 184.480469 107.902344 184.445312 108.285156 184.367188 C 108.671875 184.292969 109.042969 184.179688 109.402344 184.03125 C 109.765625 183.878906 110.105469 183.695312 110.433594 183.480469 C 110.757812 183.261719 111.058594 183.015625 111.332031 182.738281 C 111.609375 182.464844 111.855469 182.164062 112.074219 181.835938 C 112.289062 181.511719 112.472656 181.167969 112.625 180.808594 C 112.773438 180.449219 112.886719 180.074219 112.960938 179.691406 C 113.039062 179.308594 113.078125 178.921875 113.078125 178.53125 C 113.078125 178.140625 113.039062 177.753906 112.960938 177.371094 C 112.886719 176.988281 112.773438 176.613281 112.625 176.253906 C 112.472656 175.894531 112.289062 175.550781 112.074219 175.226562 C 111.855469 174.898438 111.609375 174.601562 111.332031 174.324219 C 111.058594 174.046875 110.757812 173.800781 110.433594 173.582031 C 110.105469 173.367188 109.765625 173.183594 109.402344 173.035156 C 109.042969 172.882812 108.671875 172.769531 108.285156 172.695312 C 107.902344 172.617188 107.515625 172.582031 107.125 172.582031 Z M 130.929688 172.582031 C 130.539062 172.582031 130.152344 172.617188 129.769531 172.695312 C 129.386719 172.769531 129.011719 172.882812 128.652344 173.035156 C 128.292969 173.183594 127.949219 173.367188 127.625 173.582031 C 127.296875 173.800781 127 174.046875 126.722656 174.324219 C 126.445312 174.601562 126.199219 174.898438 125.980469 175.226562 C 125.765625 175.550781 125.582031 175.894531 125.433594 176.253906 C 125.28125 176.613281 125.167969 176.988281 125.09375 177.371094 C 125.015625 177.753906 124.980469 178.140625 124.980469 178.53125 C 124.980469 178.921875 125.015625 179.308594 125.09375 179.691406 C 125.167969 180.074219 125.28125 180.449219 125.433594 180.808594 C 125.582031 181.167969 125.765625 181.511719 125.980469 181.835938 C 126.199219 182.164062 126.445312 182.464844 126.722656 182.738281 C 127 183.015625 127.296875 183.261719 127.625 183.480469 C 127.949219 183.695312 128.292969 183.878906 128.652344 184.03125 C 129.011719 184.179688 129.386719 184.292969 129.769531 184.367188 C 130.152344 184.445312 130.539062 184.480469 130.929688 184.480469 C 131.320312 184.480469 131.707031 184.445312 132.089844 184.367188 C 132.472656 184.292969 132.847656 184.179688 133.207031 184.03125 C 133.566406 183.878906 133.910156 183.695312 134.234375 183.480469 C 134.5625 183.261719 134.863281 183.015625 135.136719 182.738281 C 135.414062 182.464844 135.660156 182.164062 135.878906 181.835938 C 136.09375 181.511719 136.277344 181.167969 136.429688 180.808594 C 136.578125 180.449219 136.691406 180.074219 136.765625 179.691406 C 136.84375 179.308594 136.882812 178.921875 136.882812 178.53125 C 136.882812 178.140625 136.84375 177.753906 136.765625 177.371094 C 136.691406 176.988281 136.578125 176.613281 136.429688 176.253906 C 136.277344 175.894531 136.09375 175.550781 135.878906 175.226562 C 135.660156 174.898438 135.414062 174.601562 135.136719 174.324219 C 134.863281 174.046875 134.5625 173.800781 134.234375 173.582031 C 133.910156 173.367188 133.566406 173.183594 133.207031 173.035156 C 132.847656 172.882812 132.472656 172.769531 132.089844 172.695312 C 131.707031 172.617188 131.320312 172.582031 130.929688 172.582031 Z M 154.734375 172.582031 C 154.34375 172.582031 153.957031 172.617188 153.574219 172.695312 C 153.191406 172.769531 152.816406 172.882812 152.457031 173.035156 C 152.097656 173.183594 151.753906 173.367188 151.429688 173.582031 C 151.101562 173.800781 150.800781 174.046875 150.527344 174.324219 C 150.25 174.601562 150.003906 174.898438 149.785156 175.226562 C 149.570312 175.550781 149.386719 175.894531 149.234375 176.253906 C 149.085938 176.613281 148.972656 176.988281 148.898438 177.371094 C 148.820312 177.753906 148.78125 178.140625 148.78125 178.53125 C 148.78125 178.921875 148.820312 179.308594 148.898438 179.691406 C 148.972656 180.074219 149.085938 180.449219 149.234375 180.808594 C 149.386719 181.167969 149.570312 181.511719 149.785156 181.835938 C 150.003906 182.164062 150.25 182.464844 150.527344 182.738281 C 150.800781 183.015625 151.101562 183.261719 151.429688 183.480469 C 151.753906 183.695312 152.09375 183.878906 152.457031 184.03125 C 152.816406 184.179688 153.191406 184.292969 153.574219 184.367188 C 153.957031 184.445312 154.34375 184.480469 154.734375 184.480469 C 155.125 184.480469 155.511719 184.445312 155.894531 184.367188 C 156.277344 184.292969 156.652344 184.179688 157.011719 184.03125 C 157.371094 183.878906 157.714844 183.695312 158.039062 183.480469 C 158.363281 183.261719 158.664062 183.015625 158.941406 182.738281 C 159.21875 182.464844 159.464844 182.164062 159.683594 181.835938 C 159.898438 181.511719 160.082031 181.167969 160.230469 180.808594 C 160.382812 180.449219 160.496094 180.074219 160.570312 179.691406 C 160.648438 179.308594 160.683594 178.921875 160.683594 178.53125 C 160.683594 178.140625 160.648438 177.753906 160.570312 177.371094 C 160.496094 176.988281 160.382812 176.613281 160.230469 176.253906 C 160.082031 175.894531 159.898438 175.550781 159.683594 175.226562 C 159.464844 174.898438 159.21875 174.601562 158.941406 174.324219 C 158.664062 174.046875 158.363281 173.800781 158.039062 173.582031 C 157.714844 173.367188 157.371094 173.183594 157.011719 173.035156 C 156.652344 172.882812 156.277344 172.769531 155.894531 172.695312 C 155.511719 172.617188 155.125 172.582031 154.734375 172.582031 Z M 178.539062 172.582031 C 178.148438 172.582031 177.761719 172.617188 177.378906 172.695312 C 176.992188 172.769531 176.621094 172.882812 176.261719 173.035156 C 175.898438 173.183594 175.558594 173.367188 175.230469 173.582031 C 174.90625 173.800781 174.605469 174.046875 174.332031 174.324219 C 174.054688 174.601562 173.808594 174.898438 173.589844 175.226562 C 173.375 175.550781 173.191406 175.894531 173.039062 176.253906 C 172.890625 176.613281 172.777344 176.988281 172.703125 177.371094 C 172.625 177.753906 172.585938 178.140625 172.585938 178.53125 C 172.585938 178.921875 172.625 179.308594 172.703125 179.691406 C 172.777344 180.074219 172.890625 180.449219 173.039062 180.808594 C 173.191406 181.167969 173.371094 181.511719 173.589844 181.835938 C 173.808594 182.164062 174.054688 182.464844 174.332031 182.738281 C 174.605469 183.015625 174.90625 183.261719 175.230469 183.480469 C 175.558594 183.695312 175.898438 183.878906 176.261719 184.03125 C 176.621094 184.179688 176.992188 184.292969 177.378906 184.367188 C 177.761719 184.445312 178.148438 184.480469 178.539062 184.480469 C 178.929688 184.480469 179.316406 184.445312 179.699219 184.367188 C 180.082031 184.292969 180.453125 184.179688 180.816406 184.03125 C 181.175781 183.878906 181.519531 183.695312 181.84375 183.480469 C 182.167969 183.261719 182.46875 183.015625 182.746094 182.738281 C 183.023438 182.464844 183.269531 182.164062 183.488281 181.835938 C 183.703125 181.511719 183.886719 181.167969 184.035156 180.808594 C 184.1875 180.449219 184.296875 180.074219 184.375 179.691406 C 184.453125 179.308594 184.488281 178.921875 184.488281 178.53125 C 184.488281 178.140625 184.453125 177.753906 184.375 177.371094 C 184.296875 176.988281 184.1875 176.613281 184.035156 176.253906 C 183.886719 175.894531 183.703125 175.550781 183.488281 175.226562 C 183.269531 174.898438 183.023438 174.601562 182.746094 174.324219 C 182.46875 174.046875 182.167969 173.800781 181.84375 173.582031 C 181.519531 173.367188 181.175781 173.183594 180.816406 173.035156 C 180.453125 172.882812 180.082031 172.769531 179.699219 172.695312 C 179.316406 172.617188 178.929688 172.582031 178.539062 172.582031 Z M 202.34375 172.582031 C 201.953125 172.582031 201.566406 172.617188 201.179688 172.695312 C 200.796875 172.769531 200.425781 172.882812 200.066406 173.035156 C 199.703125 173.183594 199.359375 173.367188 199.035156 173.582031 C 198.710938 173.800781 198.410156 174.046875 198.132812 174.324219 C 197.859375 174.601562 197.613281 174.898438 197.394531 175.226562 C 197.175781 175.550781 196.992188 175.894531 196.84375 176.253906 C 196.695312 176.613281 196.582031 176.988281 196.503906 177.371094 C 196.429688 177.753906 196.390625 178.140625 196.390625 178.53125 C 196.390625 178.921875 196.429688 179.308594 196.503906 179.691406 C 196.582031 180.074219 196.695312 180.449219 196.84375 180.808594 C 196.992188 181.167969 197.175781 181.511719 197.394531 181.835938 C 197.613281 182.164062 197.859375 182.464844 198.132812 182.738281 C 198.410156 183.015625 198.710938 183.261719 199.035156 183.480469 C 199.359375 183.695312 199.703125 183.878906 200.066406 184.03125 C 200.425781 184.179688 200.796875 184.292969 201.179688 184.367188 C 201.566406 184.445312 201.953125 184.480469 202.34375 184.480469 C 202.734375 184.480469 203.121094 184.445312 203.503906 184.367188 C 203.886719 184.292969 204.257812 184.179688 204.621094 184.03125 C 204.980469 183.878906 205.324219 183.695312 205.648438 183.480469 C 205.972656 183.261719 206.273438 183.015625 206.550781 182.738281 C 206.828125 182.464844 207.074219 182.164062 207.289062 181.835938 C 207.507812 181.511719 207.691406 181.167969 207.839844 180.808594 C 207.988281 180.449219 208.101562 180.074219 208.179688 179.691406 C 208.253906 179.308594 208.292969 178.921875 208.292969 178.53125 C 208.292969 178.140625 208.253906 177.753906 208.179688 177.371094 C 208.101562 176.988281 207.988281 176.613281 207.839844 176.253906 C 207.691406 175.894531 207.507812 175.550781 207.289062 175.226562 C 207.074219 174.898438 206.828125 174.601562 206.550781 174.324219 C 206.273438 174.046875 205.972656 173.800781 205.648438 173.582031 C 205.324219 173.367188 204.980469 173.183594 204.621094 173.035156 C 204.257812 172.882812 203.886719 172.769531 203.503906 172.695312 C 203.121094 172.617188 202.734375 172.582031 202.34375 172.582031 Z M 226.148438 172.582031 C 225.757812 172.582031 225.367188 172.617188 224.984375 172.695312 C 224.601562 172.769531 224.230469 172.882812 223.871094 173.035156 C 223.507812 173.183594 223.164062 173.367188 222.839844 173.582031 C 222.515625 173.800781 222.214844 174.046875 221.9375 174.324219 C 221.664062 174.601562 221.414062 174.898438 221.199219 175.226562 C 220.980469 175.550781 220.796875 175.894531 220.648438 176.253906 C 220.5 176.613281 220.386719 176.988281 220.308594 177.371094 C 220.234375 177.753906 220.195312 178.140625 220.195312 178.53125 C 220.195312 178.921875 220.234375 179.308594 220.308594 179.691406 C 220.386719 180.074219 220.5 180.449219 220.648438 180.808594 C 220.796875 181.167969 220.980469 181.511719 221.199219 181.835938 C 221.414062 182.164062 221.664062 182.464844 221.9375 182.738281 C 222.214844 183.015625 222.515625 183.261719 222.839844 183.480469 C 223.164062 183.695312 223.507812 183.878906 223.871094 184.03125 C 224.230469 184.179688 224.601562 184.292969 224.984375 184.367188 C 225.367188 184.445312 225.757812 184.480469 226.148438 184.480469 C 226.539062 184.480469 226.925781 184.445312 227.308594 184.367188 C 227.691406 184.292969 228.0625 184.179688 228.425781 184.03125 C 228.785156 183.878906 229.128906 183.695312 229.453125 183.480469 C 229.777344 183.261719 230.078125 183.015625 230.355469 182.738281 C 230.632812 182.464844 230.878906 182.164062 231.09375 181.835938 C 231.3125 181.511719 231.496094 181.167969 231.644531 180.808594 C 231.792969 180.449219 231.90625 180.074219 231.984375 179.691406 C 232.058594 179.308594 232.097656 178.921875 232.097656 178.53125 C 232.097656 178.140625 232.058594 177.753906 231.984375 177.371094 C 231.90625 176.988281 231.792969 176.613281 231.644531 176.253906 C 231.496094 175.894531 231.3125 175.550781 231.09375 175.226562 C 230.878906 174.898438 230.632812 174.601562 230.355469 174.324219 C 230.078125 174.046875 229.777344 173.800781 229.453125 173.582031 C 229.128906 173.367188 228.785156 173.183594 228.425781 173.035156 C 228.0625 172.882812 227.691406 172.769531 227.308594 172.695312 C 226.925781 172.617188 226.539062 172.582031 226.148438 172.582031 Z M 249.949219 172.582031 C 249.558594 172.582031 249.171875 172.617188 248.789062 172.695312 C 248.40625 172.769531 248.035156 172.882812 247.671875 173.035156 C 247.3125 173.183594 246.96875 173.367188 246.644531 173.582031 C 246.320312 173.800781 246.019531 174.046875 245.742188 174.324219 C 245.464844 174.601562 245.21875 174.898438 245.003906 175.226562 C 244.785156 175.550781 244.601562 175.894531 244.453125 176.253906 C 244.304688 176.613281 244.191406 176.988281 244.113281 177.371094 C 244.039062 177.753906 244 178.140625 244 178.53125 C 244 178.921875 244.039062 179.308594 244.113281 179.691406 C 244.191406 180.074219 244.304688 180.449219 244.453125 180.808594 C 244.601562 181.167969 244.785156 181.511719 245.003906 181.835938 C 245.21875 182.164062 245.464844 182.464844 245.742188 182.738281 C 246.019531 183.015625 246.320312 183.261719 246.644531 183.480469 C 246.96875 183.695312 247.3125 183.878906 247.671875 184.03125 C 248.035156 184.179688 248.40625 184.292969 248.789062 184.367188 C 249.171875 184.445312 249.558594 184.480469 249.949219 184.480469 C 250.339844 184.480469 250.730469 184.445312 251.113281 184.367188 C 251.496094 184.292969 251.867188 184.179688 252.226562 184.03125 C 252.589844 183.878906 252.933594 183.695312 253.257812 183.480469 C 253.582031 183.261719 253.882812 183.015625 254.160156 182.738281 C 254.433594 182.464844 254.683594 182.164062 254.898438 181.835938 C 255.117188 181.511719 255.300781 181.167969 255.449219 180.808594 C 255.597656 180.449219 255.710938 180.074219 255.789062 179.691406 C 255.863281 179.308594 255.902344 178.921875 255.902344 178.53125 C 255.902344 178.140625 255.863281 177.753906 255.789062 177.371094 C 255.710938 176.988281 255.597656 176.613281 255.449219 176.253906 C 255.300781 175.894531 255.117188 175.550781 254.898438 175.226562 C 254.683594 174.898438 254.433594 174.601562 254.160156 174.324219 C 253.882812 174.046875 253.582031 173.800781 253.257812 173.582031 C 252.933594 173.367188 252.589844 173.183594 252.226562 173.035156 C 251.867188 172.882812 251.496094 172.769531 251.113281 172.695312 C 250.730469 172.617188 250.339844 172.582031 249.949219 172.582031 Z M 273.753906 172.582031 C 273.363281 172.582031 272.976562 172.617188 272.59375 172.695312 C 272.210938 172.769531 271.839844 172.882812 271.476562 173.035156 C 271.117188 173.183594 270.773438 173.367188 270.449219 173.582031 C 270.125 173.800781 269.824219 174.046875 269.546875 174.324219 C 269.269531 174.601562 269.023438 174.898438 268.808594 175.226562 C 268.589844 175.550781 268.40625 175.894531 268.257812 176.253906 C 268.109375 176.613281 267.996094 176.988281 267.917969 177.371094 C 267.84375 177.753906 267.804688 178.140625 267.804688 178.53125 C 267.804688 178.921875 267.84375 179.308594 267.917969 179.691406 C 267.996094 180.074219 268.105469 180.449219 268.257812 180.808594 C 268.40625 181.167969 268.589844 181.511719 268.808594 181.835938 C 269.023438 182.164062 269.269531 182.464844 269.546875 182.738281 C 269.824219 183.015625 270.125 183.261719 270.449219 183.480469 C 270.773438 183.695312 271.117188 183.878906 271.476562 184.03125 C 271.839844 184.179688 272.210938 184.292969 272.59375 184.367188 C 272.976562 184.445312 273.363281 184.480469 273.753906 184.480469 C 274.144531 184.480469 274.53125 184.445312 274.914062 184.367188 C 275.300781 184.292969 275.671875 184.179688 276.03125 184.03125 C 276.394531 183.878906 276.734375 183.695312 277.0625 183.480469 C 277.386719 183.261719 277.6875 183.015625 277.964844 182.738281 C 278.238281 182.464844 278.484375 182.164062 278.703125 181.835938 C 278.921875 181.511719 279.101562 181.167969 279.253906 180.808594 C 279.402344 180.449219 279.515625 180.074219 279.589844 179.691406 C 279.667969 179.308594 279.707031 178.921875 279.707031 178.53125 C 279.707031 178.140625 279.667969 177.753906 279.589844 177.371094 C 279.515625 176.988281 279.402344 176.613281 279.253906 176.253906 C 279.101562 175.894531 278.921875 175.550781 278.703125 175.226562 C 278.484375 174.898438 278.238281 174.601562 277.964844 174.324219 C 277.6875 174.046875 277.386719 173.800781 277.0625 173.582031 C 276.734375 173.367188 276.394531 173.183594 276.03125 173.035156 C 275.671875 172.882812 275.300781 172.769531 274.914062 172.695312 C 274.53125 172.617188 274.144531 172.582031 273.753906 172.582031 Z M 297.558594 172.582031 C 297.167969 172.582031 296.78125 172.617188 296.398438 172.695312 C 296.015625 172.769531 295.644531 172.882812 295.28125 173.035156 C 294.921875 173.183594 294.578125 173.367188 294.253906 173.582031 C 293.929688 173.800781 293.628906 174.046875 293.351562 174.324219 C 293.074219 174.601562 292.828125 174.898438 292.609375 175.226562 C 292.394531 175.550781 292.210938 175.894531 292.0625 176.253906 C 291.910156 176.613281 291.796875 176.988281 291.722656 177.371094 C 291.644531 177.753906 291.609375 178.140625 291.609375 178.53125 C 291.609375 178.921875 291.644531 179.308594 291.722656 179.691406 C 291.796875 180.074219 291.910156 180.449219 292.0625 180.808594 C 292.210938 181.167969 292.394531 181.511719 292.609375 181.835938 C 292.828125 182.164062 293.074219 182.464844 293.351562 182.738281 C 293.628906 183.015625 293.929688 183.261719 294.253906 183.480469 C 294.578125 183.695312 294.921875 183.878906 295.28125 184.03125 C 295.644531 184.179688 296.015625 184.292969 296.398438 184.367188 C 296.78125 184.445312 297.167969 184.480469 297.558594 184.480469 C 297.949219 184.480469 298.335938 184.445312 298.71875 184.367188 C 299.101562 184.292969 299.476562 184.179688 299.835938 184.03125 C 300.199219 183.878906 300.539062 183.695312 300.867188 183.480469 C 301.191406 183.261719 301.492188 183.015625 301.765625 182.738281 C 302.042969 182.464844 302.289062 182.164062 302.507812 181.835938 C 302.722656 181.511719 302.90625 181.167969 303.058594 180.808594 C 303.207031 180.449219 303.320312 180.074219 303.394531 179.691406 C 303.472656 179.308594 303.511719 178.921875 303.511719 178.53125 C 303.511719 178.140625 303.472656 177.753906 303.394531 177.371094 C 303.320312 176.988281 303.207031 176.613281 303.058594 176.253906 C 302.90625 175.894531 302.722656 175.550781 302.507812 175.226562 C 302.289062 174.898438 302.042969 174.601562 301.765625 174.324219 C 301.492188 174.046875 301.191406 173.800781 300.867188 173.582031 C 300.539062 173.367188 300.199219 173.183594 299.835938 173.035156 C 299.476562 172.882812 299.101562 172.769531 298.71875 172.695312 C 298.335938 172.617188 297.949219 172.582031 297.558594 172.582031 Z M 321.363281 172.582031 C 320.972656 172.582031 320.585938 172.617188 320.203125 172.695312 C 319.820312 172.769531 319.445312 172.882812 319.085938 173.035156 C 318.726562 173.183594 318.382812 173.367188 318.058594 173.582031 C 317.730469 173.800781 317.433594 174.046875 317.15625 174.324219 C 316.878906 174.601562 316.632812 174.898438 316.414062 175.226562 C 316.199219 175.550781 316.015625 175.894531 315.867188 176.253906 C 315.714844 176.613281 315.601562 176.988281 315.527344 177.371094 C 315.449219 177.753906 315.414062 178.140625 315.414062 178.53125 C 315.414062 178.921875 315.449219 179.308594 315.527344 179.691406 C 315.601562 180.074219 315.714844 180.449219 315.867188 180.808594 C 316.015625 181.167969 316.199219 181.511719 316.414062 181.835938 C 316.632812 182.164062 316.878906 182.464844 317.15625 182.738281 C 317.429688 183.015625 317.730469 183.261719 318.058594 183.480469 C 318.382812 183.695312 318.726562 183.878906 319.085938 184.03125 C 319.445312 184.179688 319.820312 184.292969 320.203125 184.367188 C 320.585938 184.445312 320.972656 184.480469 321.363281 184.480469 C 321.753906 184.480469 322.140625 184.445312 322.523438 184.367188 C 322.90625 184.292969 323.28125 184.179688 323.640625 184.03125 C 324 183.878906 324.34375 183.695312 324.667969 183.480469 C 324.996094 183.261719 325.296875 183.015625 325.570312 182.738281 C 325.847656 182.464844 326.09375 182.164062 326.3125 181.835938 C 326.527344 181.511719 326.710938 181.167969 326.863281 180.808594 C 327.011719 180.449219 327.125 180.074219 327.199219 179.691406 C 327.277344 179.308594 327.3125 178.921875 327.3125 178.53125 C 327.3125 178.140625 327.277344 177.753906 327.199219 177.371094 C 327.125 176.988281 327.011719 176.613281 326.863281 176.253906 C 326.710938 175.894531 326.527344 175.550781 326.3125 175.226562 C 326.09375 174.898438 325.847656 174.601562 325.570312 174.324219 C 325.296875 174.046875 324.996094 173.800781 324.667969 173.582031 C 324.34375 173.367188 324 173.183594 323.640625 173.035156 C 323.28125 172.882812 322.90625 172.769531 322.523438 172.695312 C 322.140625 172.617188 321.753906 172.582031 321.363281 172.582031 Z M 345.167969 172.582031 C 344.777344 172.582031 344.390625 172.617188 344.007812 172.695312 C 343.625 172.769531 343.25 172.882812 342.890625 173.035156 C 342.527344 173.183594 342.1875 173.367188 341.863281 173.582031 C 341.535156 173.800781 341.234375 174.046875 340.960938 174.324219 C 340.683594 174.601562 340.4375 174.898438 340.21875 175.226562 C 340.003906 175.550781 339.820312 175.894531 339.667969 176.253906 C 339.519531 176.613281 339.40625 176.988281 339.332031 177.371094 C 339.253906 177.753906 339.214844 178.140625 339.214844 178.53125 C 339.214844 178.921875 339.253906 179.308594 339.332031 179.691406 C 339.40625 180.074219 339.519531 180.449219 339.667969 180.808594 C 339.820312 181.167969 340.003906 181.511719 340.21875 181.835938 C 340.4375 182.164062 340.683594 182.464844 340.960938 182.738281 C 341.234375 183.015625 341.535156 183.261719 341.859375 183.480469 C 342.1875 183.695312 342.527344 183.878906 342.890625 184.03125 C 343.25 184.179688 343.625 184.292969 344.007812 184.367188 C 344.390625 184.445312 344.777344 184.480469 345.167969 184.480469 C 345.558594 184.480469 345.945312 184.445312 346.328125 184.367188 C 346.710938 184.292969 347.082031 184.179688 347.445312 184.03125 C 347.804688 183.878906 348.148438 183.695312 348.472656 183.480469 C 348.796875 183.261719 349.097656 183.015625 349.375 182.738281 C 349.652344 182.464844 349.898438 182.164062 350.117188 181.835938 C 350.332031 181.511719 350.515625 181.167969 350.664062 180.808594 C 350.816406 180.449219 350.929688 180.074219 351.003906 179.691406 C 351.082031 179.308594 351.117188 178.921875 351.117188 178.53125 C 351.117188 178.140625 351.082031 177.753906 351.003906 177.371094 C 350.929688 176.988281 350.816406 176.613281 350.664062 176.253906 C 350.515625 175.894531 350.332031 175.550781 350.117188 175.226562 C 349.898438 174.898438 349.652344 174.601562 349.375 174.324219 C 349.097656 174.046875 348.796875 173.800781 348.472656 173.582031 C 348.148438 173.367188 347.804688 173.183594 347.445312 173.035156 C 347.082031 172.882812 346.710938 172.769531 346.328125 172.695312 C 345.945312 172.617188 345.558594 172.582031 345.167969 172.582031 Z M 303.511719 208.285156 C 302.730469 208.285156 301.953125 208.363281 301.1875 208.515625 C 300.421875 208.667969 299.675781 208.894531 298.957031 209.191406 C 298.234375 209.492188 297.546875 209.859375 296.898438 210.292969 C 296.246094 210.726562 295.648438 211.21875 295.09375 211.773438 C 294.542969 212.324219 294.046875 212.925781 293.613281 213.578125 C 293.179688 214.226562 292.8125 214.910156 292.515625 215.632812 C 292.214844 216.355469 291.988281 217.101562 291.835938 217.867188 C 291.683594 218.632812 291.609375 219.40625 291.609375 220.1875 C 291.609375 220.96875 291.683594 221.746094 291.835938 222.511719 C 291.988281 223.277344 292.214844 224.019531 292.515625 224.742188 C 292.8125 225.464844 293.179688 226.152344 293.613281 226.800781 C 294.046875 227.449219 294.542969 228.050781 295.09375 228.605469 C 295.648438 229.15625 296.246094 229.652344 296.898438 230.085938 C 297.546875 230.519531 298.234375 230.886719 298.957031 231.183594 C 299.675781 231.484375 300.421875 231.710938 301.1875 231.863281 C 301.953125 232.015625 302.730469 232.089844 303.511719 232.089844 C 304.292969 232.089844 305.066406 232.015625 305.832031 231.863281 C 306.597656 231.710938 307.34375 231.484375 308.066406 231.183594 C 308.785156 230.886719 309.472656 230.519531 310.121094 230.085938 C 310.773438 229.652344 311.375 229.15625 311.925781 228.605469 C 312.480469 228.050781 312.972656 227.449219 313.40625 226.800781 C 313.839844 226.152344 314.207031 225.464844 314.507812 224.742188 C 314.804688 224.019531 315.03125 223.277344 315.183594 222.511719 C 315.335938 221.746094 315.414062 220.96875 315.414062 220.1875 C 315.414062 219.40625 315.335938 218.632812 315.183594 217.867188 C 315.03125 217.101562 314.804688 216.355469 314.507812 215.632812 C 314.207031 214.910156 313.839844 214.226562 313.40625 213.578125 C 312.972656 212.925781 312.480469 212.324219 311.925781 211.773438 C 311.375 211.21875 310.773438 210.726562 310.121094 210.292969 C 309.472656 209.859375 308.785156 209.492188 308.066406 209.191406 C 307.34375 208.894531 306.597656 208.667969 305.832031 208.515625 C 305.066406 208.363281 304.292969 208.285156 303.511719 208.285156 Z M 11.910156 315.40625 C 11.519531 315.40625 11.132812 315.445312 10.746094 315.519531 C 10.363281 315.597656 9.992188 315.707031 9.632812 315.859375 C 9.269531 316.007812 8.925781 316.191406 8.601562 316.410156 C 8.277344 316.625 7.976562 316.871094 7.699219 317.148438 C 7.425781 317.425781 7.179688 317.726562 6.960938 318.050781 C 6.742188 318.375 6.558594 318.71875 6.410156 319.078125 C 6.261719 319.441406 6.148438 319.8125 6.074219 320.195312 C 5.996094 320.578125 5.957031 320.964844 5.957031 321.355469 C 5.957031 321.746094 5.996094 322.132812 6.074219 322.515625 C 6.148438 322.902344 6.261719 323.273438 6.410156 323.632812 C 6.558594 323.996094 6.742188 324.335938 6.960938 324.664062 C 7.179688 324.988281 7.425781 325.289062 7.699219 325.566406 C 7.976562 325.839844 8.277344 326.085938 8.601562 326.304688 C 8.925781 326.523438 9.269531 326.703125 9.632812 326.855469 C 9.992188 327.003906 10.363281 327.117188 10.746094 327.191406 C 11.132812 327.269531 11.519531 327.308594 11.910156 327.308594 C 12.300781 327.308594 12.6875 327.269531 13.070312 327.191406 C 13.453125 327.117188 13.824219 327.003906 14.1875 326.855469 C 14.546875 326.703125 14.890625 326.523438 15.214844 326.304688 C 15.539062 326.085938 15.839844 325.839844 16.117188 325.566406 C 16.394531 325.289062 16.640625 324.988281 16.855469 324.664062 C 17.074219 324.335938 17.257812 323.996094 17.40625 323.632812 C 17.554688 323.273438 17.667969 322.902344 17.746094 322.515625 C 17.820312 322.132812 17.859375 321.746094 17.859375 321.355469 C 17.859375 320.964844 17.820312 320.578125 17.746094 320.195312 C 17.667969 319.8125 17.554688 319.441406 17.40625 319.078125 C 17.257812 318.71875 17.074219 318.375 16.855469 318.050781 C 16.640625 317.726562 16.394531 317.425781 16.117188 317.148438 C 15.839844 316.871094 15.539062 316.625 15.214844 316.410156 C 14.890625 316.191406 14.546875 316.007812 14.1875 315.859375 C 13.824219 315.707031 13.453125 315.597656 13.070312 315.519531 C 12.6875 315.445312 12.300781 315.40625 11.910156 315.40625 Z M 35.714844 315.40625 C 35.324219 315.40625 34.933594 315.445312 34.550781 315.519531 C 34.167969 315.597656 33.796875 315.707031 33.4375 315.859375 C 33.074219 316.007812 32.730469 316.191406 32.40625 316.410156 C 32.082031 316.625 31.78125 316.871094 31.503906 317.148438 C 31.230469 317.425781 30.980469 317.726562 30.765625 318.050781 C 30.546875 318.375 30.363281 318.71875 30.214844 319.078125 C 30.066406 319.441406 29.953125 319.8125 29.875 320.195312 C 29.800781 320.578125 29.761719 320.964844 29.761719 321.355469 C 29.761719 321.746094 29.800781 322.132812 29.875 322.515625 C 29.953125 322.902344 30.066406 323.273438 30.214844 323.632812 C 30.363281 323.996094 30.546875 324.335938 30.765625 324.664062 C 30.980469 324.988281 31.230469 325.289062 31.503906 325.566406 C 31.78125 325.839844 32.082031 326.085938 32.40625 326.304688 C 32.730469 326.523438 33.074219 326.703125 33.4375 326.855469 C 33.796875 327.003906 34.167969 327.117188 34.550781 327.191406 C 34.933594 327.269531 35.324219 327.308594 35.714844 327.308594 C 36.105469 327.308594 36.492188 327.269531 36.875 327.191406 C 37.257812 327.117188 37.628906 327.003906 37.992188 326.855469 C 38.351562 326.703125 38.695312 326.523438 39.019531 326.304688 C 39.34375 326.085938 39.644531 325.839844 39.921875 325.566406 C 40.199219 325.289062 40.445312 324.988281 40.660156 324.664062 C 40.878906 324.335938 41.0625 323.996094 41.210938 323.632812 C 41.359375 323.273438 41.472656 322.902344 41.550781 322.515625 C 41.625 322.132812 41.664062 321.746094 41.664062 321.355469 C 41.664062 320.964844 41.625 320.578125 41.550781 320.195312 C 41.472656 319.8125 41.359375 319.441406 41.210938 319.078125 C 41.0625 318.71875 40.878906 318.375 40.660156 318.050781 C 40.445312 317.726562 40.199219 317.425781 39.921875 317.148438 C 39.644531 316.871094 39.34375 316.625 39.019531 316.410156 C 38.695312 316.191406 38.351562 316.007812 37.992188 315.859375 C 37.628906 315.707031 37.257812 315.597656 36.875 315.519531 C 36.492188 315.445312 36.105469 315.40625 35.714844 315.40625 Z M 345.167969 315.40625 C 344.777344 315.40625 344.390625 315.445312 344.007812 315.519531 C 343.625 315.597656 343.25 315.707031 342.890625 315.859375 C 342.527344 316.007812 342.1875 316.191406 341.863281 316.410156 C 341.535156 316.625 341.234375 316.871094 340.960938 317.148438 C 340.683594 317.425781 340.4375 317.726562 340.21875 318.050781 C 340.003906 318.375 339.820312 318.71875 339.667969 319.078125 C 339.519531 319.441406 339.40625 319.8125 339.332031 320.195312 C 339.253906 320.578125 339.214844 320.964844 339.214844 321.355469 C 339.214844 321.746094 339.253906 322.132812 339.332031 322.515625 C 339.40625 322.902344 339.519531 323.273438 339.667969 323.632812 C 339.820312 323.996094 340.003906 324.335938 340.21875 324.664062 C 340.4375 324.988281 340.683594 325.289062 340.960938 325.566406 C 341.234375 325.839844 341.535156 326.085938 341.859375 326.304688 C 342.1875 326.523438 342.527344 326.703125 342.890625 326.855469 C 343.25 327.003906 343.625 327.117188 344.007812 327.191406 C 344.390625 327.269531 344.777344 327.308594 345.167969 327.308594 C 345.558594 327.308594 345.945312 327.269531 346.328125 327.191406 C 346.710938 327.117188 347.082031 327.003906 347.445312 326.855469 C 347.804688 326.703125 348.148438 326.523438 348.472656 326.304688 C 348.796875 326.085938 349.097656 325.839844 349.375 325.566406 C 349.652344 325.289062 349.898438 324.988281 350.117188 324.664062 C 350.332031 324.335938 350.515625 323.996094 350.664062 323.632812 C 350.816406 323.273438 350.929688 322.902344 351.003906 322.515625 C 351.082031 322.132812 351.117188 321.746094 351.117188 321.355469 C 351.117188 320.964844 351.082031 320.578125 351.003906 320.195312 C 350.929688 319.8125 350.816406 319.441406 350.664062 319.078125 C 350.515625 318.71875 350.332031 318.375 350.117188 318.050781 C 349.898438 317.726562 349.652344 317.425781 349.375 317.148438 C 349.097656 316.871094 348.796875 316.625 348.472656 316.410156 C 348.148438 316.191406 347.804688 316.007812 347.445312 315.859375 C 347.082031 315.707031 346.710938 315.597656 346.328125 315.519531 C 345.945312 315.445312 345.558594 315.40625 345.167969 315.40625 Z M 368.972656 315.40625 C 368.582031 315.40625 368.195312 315.445312 367.8125 315.519531 C 367.425781 315.597656 367.054688 315.707031 366.695312 315.859375 C 366.332031 316.007812 365.992188 316.191406 365.664062 316.410156 C 365.339844 316.625 365.039062 316.871094 364.765625 317.148438 C 364.488281 317.425781 364.242188 317.726562 364.023438 318.050781 C 363.804688 318.375 363.625 318.71875 363.472656 319.078125 C 363.324219 319.441406 363.210938 319.8125 363.136719 320.195312 C 363.058594 320.578125 363.019531 320.964844 363.019531 321.355469 C 363.019531 321.746094 363.058594 322.132812 363.136719 322.515625 C 363.210938 322.902344 363.324219 323.273438 363.472656 323.632812 C 363.625 323.996094 363.804688 324.335938 364.023438 324.664062 C 364.242188 324.988281 364.488281 325.289062 364.761719 325.566406 C 365.039062 325.839844 365.339844 326.085938 365.664062 326.304688 C 365.992188 326.523438 366.332031 326.703125 366.695312 326.855469 C 367.054688 327.003906 367.425781 327.117188 367.8125 327.191406 C 368.195312 327.269531 368.582031 327.308594 368.972656 327.308594 C 369.363281 327.308594 369.75 327.269531 370.132812 327.191406 C 370.515625 327.117188 370.886719 327.003906 371.25 326.855469 C 371.609375 326.703125 371.953125 326.523438 372.277344 326.304688 C 372.601562 326.085938 372.902344 325.839844 373.179688 325.566406 C 373.457031 325.289062 373.703125 324.988281 373.917969 324.664062 C 374.136719 324.335938 374.320312 323.996094 374.46875 323.632812 C 374.621094 323.273438 374.730469 322.902344 374.808594 322.515625 C 374.882812 322.132812 374.921875 321.746094 374.921875 321.355469 C 374.921875 320.964844 374.882812 320.578125 374.808594 320.195312 C 374.730469 319.8125 374.621094 319.441406 374.46875 319.078125 C 374.320312 318.71875 374.136719 318.375 373.917969 318.050781 C 373.703125 317.726562 373.457031 317.425781 373.179688 317.148438 C 372.902344 316.871094 372.601562 316.625 372.277344 316.410156 C 371.953125 316.191406 371.609375 316.007812 371.25 315.859375 C 370.886719 315.707031 370.515625 315.597656 370.132812 315.519531 C 369.75 315.445312 369.363281 315.40625 368.972656 315.40625 Z M 11.910156 339.210938 C 11.519531 339.210938 11.132812 339.246094 10.746094 339.324219 C 10.363281 339.398438 9.992188 339.511719 9.632812 339.664062 C 9.269531 339.8125 8.925781 339.996094 8.601562 340.210938 C 8.277344 340.429688 7.976562 340.675781 7.699219 340.953125 C 7.425781 341.230469 7.179688 341.53125 6.960938 341.855469 C 6.742188 342.179688 6.558594 342.523438 6.410156 342.882812 C 6.261719 343.246094 6.148438 343.617188 6.074219 344 C 5.996094 344.382812 5.957031 344.769531 5.957031 345.160156 C 5.957031 345.550781 5.996094 345.9375 6.074219 346.320312 C 6.148438 346.703125 6.261719 347.078125 6.410156 347.4375 C 6.558594 347.800781 6.742188 348.140625 6.960938 348.46875 C 7.179688 348.792969 7.425781 349.09375 7.699219 349.367188 C 7.976562 349.644531 8.277344 349.890625 8.601562 350.109375 C 8.925781 350.324219 9.269531 350.507812 9.632812 350.660156 C 9.992188 350.808594 10.363281 350.921875 10.746094 350.996094 C 11.132812 351.074219 11.519531 351.113281 11.910156 351.113281 C 12.300781 351.113281 12.6875 351.074219 13.070312 350.996094 C 13.453125 350.921875 13.824219 350.808594 14.1875 350.660156 C 14.546875 350.507812 14.890625 350.324219 15.214844 350.109375 C 15.539062 349.890625 15.839844 349.644531 16.117188 349.367188 C 16.394531 349.09375 16.640625 348.792969 16.855469 348.46875 C 17.074219 348.140625 17.257812 347.800781 17.40625 347.4375 C 17.554688 347.078125 17.667969 346.703125 17.746094 346.320312 C 17.820312 345.9375 17.859375 345.550781 17.859375 345.160156 C 17.859375 344.769531 17.820312 344.382812 17.746094 344 C 17.667969 343.617188 17.554688 343.246094 17.40625 342.882812 C 17.257812 342.523438 17.074219 342.179688 16.855469 341.855469 C 16.640625 341.53125 16.394531 341.230469 16.117188 340.953125 C 15.839844 340.675781 15.539062 340.429688 15.214844 340.210938 C 14.890625 339.996094 14.546875 339.8125 14.1875 339.664062 C 13.824219 339.511719 13.453125 339.398438 13.070312 339.324219 C 12.6875 339.246094 12.300781 339.210938 11.910156 339.210938 Z M 35.714844 339.210938 C 35.324219 339.210938 34.933594 339.246094 34.550781 339.324219 C 34.167969 339.398438 33.796875 339.511719 33.4375 339.664062 C 33.074219 339.8125 32.730469 339.996094 32.40625 340.210938 C 32.082031 340.429688 31.78125 340.675781 31.503906 340.953125 C 31.230469 341.230469 30.980469 341.53125 30.765625 341.855469 C 30.546875 342.179688 30.363281 342.523438 30.214844 342.882812 C 30.066406 343.246094 29.953125 343.617188 29.875 344 C 29.800781 344.382812 29.761719 344.769531 29.761719 345.160156 C 29.761719 345.550781 29.800781 345.9375 29.875 346.320312 C 29.953125 346.703125 30.066406 347.078125 30.214844 347.4375 C 30.363281 347.800781 30.546875 348.140625 30.765625 348.46875 C 30.980469 348.792969 31.230469 349.09375 31.503906 349.367188 C 31.78125 349.644531 32.082031 349.890625 32.40625 350.109375 C 32.730469 350.324219 33.074219 350.507812 33.4375 350.660156 C 33.796875 350.808594 34.167969 350.921875 34.550781 350.996094 C 34.933594 351.074219 35.324219 351.113281 35.714844 351.113281 C 36.105469 351.113281 36.492188 351.074219 36.875 350.996094 C 37.257812 350.921875 37.628906 350.808594 37.992188 350.660156 C 38.351562 350.507812 38.695312 350.324219 39.019531 350.109375 C 39.34375 349.890625 39.644531 349.644531 39.921875 349.367188 C 40.199219 349.09375 40.445312 348.792969 40.660156 348.46875 C 40.878906 348.140625 41.0625 347.800781 41.210938 347.4375 C 41.359375 347.078125 41.472656 346.703125 41.550781 346.320312 C 41.625 345.9375 41.664062 345.550781 41.664062 345.160156 C 41.664062 344.769531 41.625 344.382812 41.550781 344 C 41.472656 343.617188 41.359375 343.246094 41.210938 342.882812 C 41.0625 342.523438 40.878906 342.179688 40.660156 341.855469 C 40.445312 341.53125 40.199219 341.230469 39.921875 340.953125 C 39.644531 340.675781 39.34375 340.429688 39.019531 340.210938 C 38.695312 339.996094 38.351562 339.8125 37.992188 339.664062 C 37.628906 339.511719 37.257812 339.398438 36.875 339.324219 C 36.492188 339.246094 36.105469 339.210938 35.714844 339.210938 Z M 59.515625 339.210938 C 59.125 339.203125 58.730469 339.238281 58.34375 339.308594 C 57.957031 339.382812 57.578125 339.492188 57.214844 339.636719 C 56.847656 339.785156 56.5 339.96875 56.171875 340.183594 C 55.839844 340.398438 55.535156 340.644531 55.253906 340.921875 C 54.972656 341.199219 54.722656 341.5 54.503906 341.828125 C 54.28125 342.15625 54.09375 342.5 53.941406 342.863281 C 53.789062 343.226562 53.675781 343.601562 53.597656 343.988281 C 53.519531 344.375 53.480469 344.765625 53.480469 345.160156 C 53.480469 345.554688 53.519531 345.945312 53.597656 346.332031 C 53.675781 346.71875 53.789062 347.09375 53.941406 347.457031 C 54.09375 347.820312 54.28125 348.167969 54.503906 348.492188 C 54.722656 348.820312 54.972656 349.121094 55.253906 349.398438 C 55.535156 349.675781 55.839844 349.921875 56.171875 350.136719 C 56.5 350.355469 56.847656 350.535156 57.214844 350.683594 C 57.578125 350.828125 57.957031 350.941406 58.34375 351.011719 C 58.730469 351.082031 59.125 351.117188 59.515625 351.113281 L 101.175781 351.113281 C 101.175781 360.902344 109.238281 368.964844 119.027344 368.964844 L 261.851562 368.964844 C 271.640625 368.964844 279.707031 360.902344 279.707031 351.113281 L 321.363281 351.113281 C 321.757812 351.117188 322.148438 351.082031 322.535156 351.011719 C 322.925781 350.941406 323.300781 350.828125 323.667969 350.683594 C 324.03125 350.535156 324.378906 350.355469 324.710938 350.136719 C 325.039062 349.921875 325.34375 349.675781 325.625 349.398438 C 325.90625 349.121094 326.15625 348.820312 326.378906 348.492188 C 326.597656 348.167969 326.785156 347.820312 326.9375 347.457031 C 327.089844 347.09375 327.203125 346.71875 327.28125 346.332031 C 327.359375 345.945312 327.398438 345.554688 327.398438 345.160156 C 327.398438 344.765625 327.359375 344.375 327.28125 343.988281 C 327.203125 343.601562 327.089844 343.226562 326.9375 342.863281 C 326.785156 342.5 326.597656 342.15625 326.378906 341.828125 C 326.15625 341.5 325.90625 341.199219 325.625 340.921875 C 325.34375 340.644531 325.039062 340.398438 324.710938 340.183594 C 324.378906 339.96875 324.03125 339.785156 323.667969 339.636719 C 323.300781 339.492188 322.925781 339.382812 322.535156 339.308594 C 322.148438 339.238281 321.757812 339.203125 321.363281 339.210938 L 267.804688 339.210938 L 267.804688 351.113281 C 267.804688 354.472656 265.214844 357.0625 261.851562 357.0625 L 119.027344 357.0625 C 115.664062 357.0625 113.078125 354.472656 113.078125 351.113281 L 113.078125 339.210938 Z M 345.167969 339.210938 C 344.777344 339.210938 344.390625 339.246094 344.007812 339.324219 C 343.625 339.398438 343.25 339.511719 342.890625 339.664062 C 342.527344 339.8125 342.1875 339.996094 341.863281 340.210938 C 341.535156 340.429688 341.234375 340.675781 340.960938 340.953125 C 340.683594 341.230469 340.4375 341.53125 340.21875 341.855469 C 340.003906 342.179688 339.820312 342.523438 339.667969 342.882812 C 339.519531 343.246094 339.40625 343.617188 339.332031 344 C 339.253906 344.382812 339.214844 344.769531 339.214844 345.160156 C 339.214844 345.550781 339.253906 345.9375 339.332031 346.320312 C 339.40625 346.703125 339.519531 347.078125 339.667969 347.4375 C 339.820312 347.800781 340.003906 348.140625 340.21875 348.46875 C 340.4375 348.792969 340.683594 349.09375 340.960938 349.367188 C 341.234375 349.644531 341.535156 349.890625 341.859375 350.109375 C 342.1875 350.324219 342.527344 350.507812 342.890625 350.660156 C 343.25 350.808594 343.625 350.921875 344.007812 350.996094 C 344.390625 351.074219 344.777344 351.113281 345.167969 351.113281 C 345.558594 351.113281 345.945312 351.074219 346.328125 350.996094 C 346.710938 350.921875 347.082031 350.808594 347.445312 350.660156 C 347.804688 350.507812 348.148438 350.324219 348.472656 350.109375 C 348.796875 349.890625 349.097656 349.644531 349.375 349.367188 C 349.652344 349.09375 349.898438 348.792969 350.117188 348.46875 C 350.332031 348.140625 350.515625 347.800781 350.664062 347.4375 C 350.816406 347.078125 350.929688 346.703125 351.003906 346.320312 C 351.082031 345.9375 351.117188 345.550781 351.117188 345.160156 C 351.117188 344.769531 351.082031 344.382812 351.003906 344 C 350.929688 343.617188 350.816406 343.246094 350.664062 342.882812 C 350.515625 342.523438 350.332031 342.179688 350.117188 341.855469 C 349.898438 341.53125 349.652344 341.230469 349.375 340.953125 C 349.097656 340.675781 348.796875 340.429688 348.472656 340.210938 C 348.148438 339.996094 347.804688 339.8125 347.445312 339.664062 C 347.082031 339.511719 346.710938 339.398438 346.328125 339.324219 C 345.945312 339.246094 345.558594 339.210938 345.167969 339.210938 Z M 368.972656 339.210938 C 368.582031 339.210938 368.195312 339.246094 367.8125 339.324219 C 367.425781 339.398438 367.054688 339.511719 366.695312 339.664062 C 366.332031 339.8125 365.992188 339.996094 365.664062 340.210938 C 365.339844 340.429688 365.039062 340.675781 364.765625 340.953125 C 364.488281 341.230469 364.242188 341.53125 364.023438 341.855469 C 363.804688 342.179688 363.625 342.523438 363.472656 342.882812 C 363.324219 343.246094 363.210938 343.617188 363.136719 344 C 363.058594 344.382812 363.019531 344.769531 363.019531 345.160156 C 363.019531 345.550781 363.058594 345.9375 363.136719 346.320312 C 363.210938 346.703125 363.324219 347.078125 363.472656 347.4375 C 363.625 347.800781 363.804688 348.140625 364.023438 348.46875 C 364.242188 348.792969 364.488281 349.09375 364.761719 349.367188 C 365.039062 349.644531 365.339844 349.890625 365.664062 350.109375 C 365.992188 350.324219 366.332031 350.507812 366.695312 350.660156 C 367.054688 350.808594 367.425781 350.921875 367.8125 350.996094 C 368.195312 351.074219 368.582031 351.113281 368.972656 351.113281 C 369.363281 351.113281 369.75 351.074219 370.132812 350.996094 C 370.515625 350.921875 370.886719 350.808594 371.25 350.660156 C 371.609375 350.507812 371.953125 350.324219 372.277344 350.109375 C 372.601562 349.890625 372.902344 349.644531 373.179688 349.367188 C 373.457031 349.09375 373.703125 348.792969 373.917969 348.46875 C 374.136719 348.140625 374.320312 347.800781 374.46875 347.4375 C 374.621094 347.078125 374.730469 346.703125 374.808594 346.320312 C 374.882812 345.9375 374.921875 345.550781 374.921875 345.160156 C 374.921875 344.769531 374.882812 344.382812 374.808594 344 C 374.730469 343.617188 374.621094 343.246094 374.46875 342.882812 C 374.320312 342.523438 374.136719 342.179688 373.917969 341.855469 C 373.703125 341.53125 373.457031 341.230469 373.179688 340.953125 C 372.902344 340.675781 372.601562 340.429688 372.277344 340.210938 C 371.953125 339.996094 371.609375 339.8125 371.25 339.664062 C 370.886719 339.511719 370.515625 339.398438 370.132812 339.324219 C 369.75 339.246094 369.363281 339.210938 368.972656 339.210938 Z M 368.972656 339.210938 "/>
</g>
</g>
</svg>
