<svg width="75" height="76" viewBox="0 0 75 76" fill="none" xmlns="http://www.w3.org/2000/svg">
<path d="M67.9688 10.2031H63.2812V6.4543C63.2812 4.64844 61.9242 3.17188 60.2695 3.17188H45.1945C43.5445 3.17188 42.1875 4.64844 42.1875 6.4543V10.2031H13.9934L7.03125 24.2656H11.8652V33.6406H11.0824L7.17773 38.3281L11.0824 43.0156H11.9379V45.5328C11.9379 46.1691 12.4289 46.6836 13.0371 46.6836C14.8547 46.6836 16.3336 48.2352 16.3336 50.1418C16.3336 52.0484 14.8547 53.6 13.0371 53.6C11.2195 53.6 9.74063 52.0484 9.74063 50.1418C9.74063 49.5055 9.24844 48.991 8.64141 48.991C8.0332 48.991 7.54219 49.5055 7.54219 50.1418C7.54453 53.3223 10.0078 55.9062 13.0371 55.9062C16.0652 55.9062 18.5309 53.3223 18.5309 50.143C18.5309 47.3598 16.6406 45.0301 14.1363 44.4969V43.0156H14.9906L18.8965 38.3281L14.9906 33.6406H14.209V24.2656H42.1875V32.702C42.1875 34.2582 43.1965 35.5625 44.5312 35.8977V73.4844H47.6074V66.4531L57.8613 69.9688L47.6074 73.4844H60.9375V35.8965C62.2734 35.5625 63.2812 34.2582 63.2812 32.702V24.2656H67.9688V20.75H65.5336L67.9688 16.127V10.2031ZM12.4723 20.75L15.2098 15.1262L18.1699 20.75H12.4723ZM17.6543 13.7188H22.5211L20.0883 18.3418L17.6543 13.7188ZM22.0066 20.75L24.4406 16.127L26.8758 20.75H22.0066ZM26.3602 13.7188H31.227L28.793 18.3418L26.3602 13.7188ZM30.7137 20.75L33.1465 16.127L35.5793 20.75H30.7137ZM35.066 13.7188H39.9328L37.5 18.3418L35.066 13.7188ZM42.1875 20.75H39.4184L41.8512 16.127L42.1875 16.7656V20.75ZM57.8613 66.4531L47.6074 62.9375L57.8613 59.4219V66.4531ZM47.6074 59.4219V52.3906L57.8613 55.9086L47.6074 59.4219ZM57.8613 52.3906L47.6074 48.875L57.8613 45.3594V52.3906ZM47.6074 45.3594V38.3305L57.8613 41.8438L47.6074 45.3594ZM57.8613 38.3305L51.0234 35.9844H57.8613V38.3305ZM59.6191 18.6969C59.6191 19.8254 58.827 20.75 57.8613 20.75H47.3121C46.3465 20.75 45.5566 19.8254 45.5566 18.6969V8.74766C45.5566 7.61211 46.3465 6.6875 47.3121 6.6875H57.8613C58.827 6.6875 59.6191 7.61211 59.6191 8.74766V18.6969ZM63.6152 18.3418L63.2812 17.7066V13.7188H66.048L63.6152 18.3418Z" fill="black"/>
</svg>
