<?xml version="1.0" encoding="UTF-8"?>
<svg xmlns="http://www.w3.org/2000/svg" xmlns:xlink="http://www.w3.org/1999/xlink" width="375pt" height="374.999991pt" viewBox="0 0 375 374.999991" version="1.2">
<defs>
<clipPath id="clip1">
  <path d="M 37.5 249 L 121 249 L 121 314 L 37.5 314 Z M 37.5 249 "/>
</clipPath>
<clipPath id="clip2">
  <path d="M 59 323 L 99 323 L 99 332.953125 L 59 332.953125 Z M 59 323 "/>
</clipPath>
<clipPath id="clip3">
  <path d="M 267 249 L 351 249 L 351 314 L 267 314 Z M 267 249 "/>
</clipPath>
<clipPath id="clip4">
  <path d="M 290 323 L 330 323 L 330 332.953125 L 290 332.953125 Z M 290 323 "/>
</clipPath>
<clipPath id="clip5">
  <path d="M 37.5 19.453125 L 121 19.453125 L 121 84 L 37.5 84 Z M 37.5 19.453125 "/>
</clipPath>
<clipPath id="clip6">
  <path d="M 267 19.453125 L 351 19.453125 L 351 84 L 267 84 Z M 267 19.453125 "/>
</clipPath>
</defs>
<g id="surface1">
<path style=" stroke:none;fill-rule:nonzero;fill:rgb(0%,0%,0%);fill-opacity:1;" d="M 159.84375 324.457031 C 160.335938 324.457031 160.578125 324.703125 161.070312 324.703125 C 163.277344 324.703125 165.238281 323.230469 165.726562 321.023438 C 166.21875 318.328125 164.746094 315.628906 162.050781 315.140625 C 160.578125 314.894531 158.863281 314.40625 157.390625 313.914062 C 154.695312 313.179688 152 314.648438 151.507812 317.347656 C 150.773438 320.042969 152.242188 322.742188 154.941406 323.230469 C 156.65625 323.722656 158.371094 323.964844 159.84375 324.457031 Z M 159.84375 324.457031 "/>
<path style=" stroke:none;fill-rule:nonzero;fill:rgb(0%,0%,0%);fill-opacity:1;" d="M 48.777344 220.257812 C 49.515625 222.460938 51.476562 223.6875 53.4375 223.6875 C 53.925781 223.6875 54.417969 223.6875 54.90625 223.445312 C 57.605469 222.707031 59.074219 220.011719 58.09375 217.3125 C 57.605469 215.84375 57.113281 214.371094 56.867188 212.65625 C 56.132812 209.957031 53.4375 208.488281 50.984375 209.222656 C 48.289062 209.957031 46.816406 212.65625 47.550781 215.105469 C 47.796875 217.070312 48.289062 218.539062 48.777344 220.257812 Z M 48.777344 220.257812 "/>
<path style=" stroke:none;fill-rule:nonzero;fill:rgb(0%,0%,0%);fill-opacity:1;" d="M 141.945312 43.726562 C 142.4375 43.726562 143.171875 43.726562 143.664062 43.480469 C 145.132812 42.992188 146.605469 42.5 148.074219 41.765625 C 150.527344 40.785156 152 38.089844 151.019531 35.636719 C 150.035156 33.183594 147.339844 31.714844 144.886719 32.695312 C 143.171875 33.183594 141.699219 33.921875 140.230469 34.410156 C 137.777344 35.390625 136.308594 38.089844 137.289062 40.785156 C 138.269531 42.5 139.984375 43.726562 141.945312 43.726562 Z M 141.945312 43.726562 "/>
<path style=" stroke:none;fill-rule:nonzero;fill:rgb(0%,0%,0%);fill-opacity:1;" d="M 43.875 197.945312 C 44.121094 200.398438 46.328125 202.113281 48.777344 202.113281 C 49.023438 202.113281 49.269531 202.113281 49.515625 202.113281 C 52.210938 201.621094 54.171875 199.171875 53.683594 196.472656 C 53.4375 195.003906 53.191406 193.285156 53.191406 191.816406 C 52.945312 189.117188 50.496094 187.15625 47.796875 187.402344 C 45.101562 187.648438 43.140625 190.097656 43.382812 192.796875 C 43.382812 194.511719 43.628906 196.230469 43.875 197.945312 Z M 43.875 197.945312 "/>
<path style=" stroke:none;fill-rule:nonzero;fill:rgb(0%,0%,0%);fill-opacity:1;" d="M 138.269531 317.59375 C 138.757812 317.835938 139.496094 317.835938 139.984375 317.835938 C 141.945312 317.835938 143.664062 316.609375 144.644531 314.648438 C 145.625 312.199219 144.398438 309.253906 141.945312 308.273438 C 140.476562 307.785156 139.003906 307.050781 137.53125 306.558594 C 135.082031 305.578125 132.140625 306.558594 131.15625 309.011719 C 130.175781 311.460938 131.15625 314.40625 133.609375 315.386719 C 135.082031 316.367188 136.550781 317.101562 138.269531 317.59375 Z M 138.269531 317.59375 "/>
<path style=" stroke:none;fill-rule:nonzero;fill:rgb(0%,0%,0%);fill-opacity:1;" d="M 344.953125 155.773438 C 344.707031 153.078125 342.257812 151.117188 339.558594 151.605469 C 336.863281 151.851562 334.902344 154.546875 335.390625 157 C 335.636719 158.472656 335.882812 160.1875 335.882812 161.660156 C 336.128906 164.109375 338.335938 166.070312 340.785156 166.070312 C 341.03125 166.070312 341.03125 166.070312 341.277344 166.070312 C 343.972656 165.828125 345.933594 163.375 345.6875 160.675781 C 345.445312 159.207031 345.199219 157.492188 344.953125 155.773438 Z M 344.953125 155.773438 "/>
<path style=" stroke:none;fill-rule:nonzero;fill:rgb(0%,0%,0%);fill-opacity:1;" d="M 42.402344 170.238281 C 42.402344 171.957031 42.402344 173.671875 42.402344 175.386719 C 42.402344 178.085938 44.609375 180.292969 47.308594 180.292969 C 50.003906 180.292969 52.210938 178.085938 52.210938 175.386719 C 52.210938 173.917969 52.210938 172.199219 52.210938 170.730469 C 52.210938 168.03125 50.25 165.828125 47.550781 165.582031 C 44.855469 165.335938 42.648438 167.542969 42.402344 170.238281 Z M 42.402344 170.238281 "/>
<path style=" stroke:none;fill-rule:nonzero;fill:rgb(0%,0%,0%);fill-opacity:1;" d="M 340.296875 133.460938 C 339.558594 130.765625 336.863281 129.292969 334.164062 130.03125 C 331.46875 130.765625 329.996094 133.460938 330.734375 136.160156 C 331.222656 137.632812 331.714844 139.101562 331.960938 140.816406 C 332.449219 143.023438 334.410156 144.496094 336.617188 144.496094 C 337.109375 144.496094 337.351562 144.496094 337.84375 144.25 C 340.539062 143.515625 342.011719 140.816406 341.277344 138.367188 C 341.277344 136.894531 340.785156 135.179688 340.296875 133.460938 Z M 340.296875 133.460938 "/>
<path style=" stroke:none;fill-rule:nonzero;fill:rgb(0%,0%,0%);fill-opacity:1;" d="M 67.167969 112.621094 L 64.46875 112.621094 C 62.019531 112.621094 59.566406 111.886719 57.605469 110.90625 C 57.359375 112.867188 58.339844 114.828125 60.300781 115.808594 C 61.039062 116.054688 61.773438 116.300781 62.507812 116.300781 C 64.222656 116.300781 65.941406 115.320312 66.921875 113.601562 C 66.921875 113.359375 67.167969 112.867188 67.167969 112.621094 Z M 67.167969 112.621094 "/>
<path style=" stroke:none;fill-rule:nonzero;fill:rgb(0%,0%,0%);fill-opacity:1;" d="M 52.699219 136.648438 C 53.191406 136.894531 53.683594 136.894531 54.171875 136.894531 C 56.132812 136.894531 58.09375 135.667969 58.832031 133.460938 C 59.320312 131.992188 59.8125 130.519531 60.300781 129.050781 C 61.28125 126.597656 59.8125 123.65625 57.359375 122.675781 C 54.90625 121.695312 51.964844 123.164062 50.984375 125.617188 C 50.496094 127.332031 49.757812 128.804688 49.269531 130.519531 C 48.777344 132.972656 50.003906 135.667969 52.699219 136.648438 Z M 52.699219 136.648438 "/>
<path style=" stroke:none;fill-rule:nonzero;fill:rgb(0%,0%,0%);fill-opacity:1;" d="M 45.101562 147.683594 C 44.855469 149.398438 44.609375 151.117188 44.121094 152.585938 C 43.628906 155.285156 45.589844 157.734375 48.289062 158.226562 C 48.53125 158.226562 48.777344 158.226562 49.023438 158.226562 C 51.476562 158.226562 53.4375 156.507812 53.925781 154.058594 C 54.171875 152.585938 54.417969 150.871094 54.664062 149.398438 C 55.152344 146.703125 53.4375 144.25 50.738281 143.761719 C 48.289062 143.269531 45.589844 144.984375 45.101562 147.683594 Z M 45.101562 147.683594 "/>
<path style=" stroke:none;fill-rule:nonzero;fill:rgb(0%,0%,0%);fill-opacity:1;" d="M 333.429688 229.328125 C 335.390625 229.328125 337.351562 228.101562 338.089844 226.140625 C 338.578125 224.425781 339.070312 222.953125 339.558594 221.238281 C 340.296875 218.539062 338.824219 215.84375 336.371094 215.105469 C 333.675781 214.371094 330.980469 215.84375 330.242188 218.292969 C 329.753906 219.765625 329.261719 221.238281 328.773438 222.707031 C 327.792969 225.160156 329.261719 228.101562 331.714844 228.835938 C 332.449219 229.328125 332.941406 229.328125 333.429688 229.328125 Z M 333.429688 229.328125 "/>
<path style=" stroke:none;fill-rule:nonzero;fill:rgb(0%,0%,0%);fill-opacity:1;" d="M 343.972656 204.074219 C 344.21875 202.359375 344.464844 200.640625 344.707031 199.171875 C 345.199219 196.472656 343.238281 194.023438 340.539062 193.53125 C 337.84375 193.042969 335.390625 195.003906 334.902344 197.699219 C 334.65625 199.171875 334.410156 200.886719 334.164062 202.359375 C 333.675781 205.054688 335.390625 207.507812 338.089844 207.996094 C 338.335938 207.996094 338.578125 207.996094 339.070312 207.996094 C 341.519531 207.996094 343.484375 206.527344 343.972656 204.074219 Z M 343.972656 204.074219 "/>
<path style=" stroke:none;fill-rule:nonzero;fill:rgb(0%,0%,0%);fill-opacity:1;" d="M 346.425781 181.519531 C 346.425781 179.800781 346.425781 178.085938 346.425781 176.367188 C 346.425781 173.671875 344.21875 171.464844 341.519531 171.464844 C 338.824219 171.464844 336.617188 173.671875 336.617188 176.367188 C 336.617188 177.839844 336.617188 179.554688 336.617188 181.027344 C 336.617188 183.722656 338.578125 185.929688 341.277344 186.175781 C 341.277344 186.175781 341.277344 186.175781 341.519531 186.175781 C 343.972656 186.175781 346.179688 183.96875 346.425781 181.519531 Z M 346.425781 181.519531 "/>
<path style=" stroke:none;fill-rule:nonzero;fill:rgb(0%,0%,0%);fill-opacity:1;" d="M 200.296875 328.378906 C 202.015625 328.378906 203.730469 328.132812 205.445312 328.132812 C 208.144531 327.890625 210.105469 325.683594 210.105469 322.984375 C 210.105469 320.289062 207.652344 318.328125 204.957031 318.328125 C 203.484375 318.328125 201.769531 318.574219 200.296875 318.574219 C 197.601562 318.574219 195.394531 321.023438 195.640625 323.722656 C 195.148438 326.171875 197.355469 328.378906 200.296875 328.378906 C 200.054688 328.378906 200.054688 328.378906 200.296875 328.378906 Z M 200.296875 328.378906 "/>
<path style=" stroke:none;fill-rule:nonzero;fill:rgb(0%,0%,0%);fill-opacity:1;" d="M 185.097656 34.410156 C 185.097656 34.410156 185.34375 34.410156 185.34375 34.410156 C 186.8125 34.410156 188.53125 34.164062 190 34.164062 C 192.699219 34.164062 194.90625 31.714844 194.660156 29.015625 C 194.660156 26.320312 192.453125 24.113281 189.511719 24.359375 C 187.792969 24.359375 186.078125 24.605469 184.363281 24.605469 C 181.664062 24.847656 179.703125 27.054688 179.703125 29.753906 C 180.195312 32.449219 182.402344 34.410156 185.097656 34.410156 Z M 185.097656 34.410156 "/>
<path style=" stroke:none;fill-rule:nonzero;fill:rgb(0%,0%,0%);fill-opacity:1;" d="M 206.671875 34.65625 C 208.144531 34.902344 209.859375 34.902344 211.332031 35.144531 C 211.578125 35.144531 211.820312 35.144531 211.820312 35.144531 C 214.273438 35.144531 216.480469 33.429688 216.726562 30.734375 C 216.96875 28.035156 215.007812 25.585938 212.558594 25.339844 C 210.839844 25.09375 209.125 24.847656 207.410156 24.847656 C 204.710938 24.605469 202.261719 26.566406 202.015625 29.261719 C 202.015625 31.960938 203.976562 34.410156 206.671875 34.65625 Z M 206.671875 34.65625 "/>
<path style=" stroke:none;fill-rule:nonzero;fill:rgb(0%,0%,0%);fill-opacity:1;" d="M 177.496094 327.398438 C 179.214844 327.644531 180.929688 327.644531 182.644531 327.890625 C 182.890625 327.890625 182.890625 327.890625 183.136719 327.890625 C 185.585938 327.890625 187.792969 325.929688 188.039062 323.476562 C 188.285156 320.777344 186.324219 318.328125 183.625 318.328125 C 182.15625 318.328125 180.4375 318.082031 178.96875 317.835938 C 176.269531 317.59375 173.820312 319.554688 173.574219 322.25 C 173.328125 324.949219 174.800781 327.152344 177.496094 327.398438 Z M 177.496094 327.398438 "/>
<path style=" stroke:none;fill-rule:nonzero;fill:rgb(0%,0%,0%);fill-opacity:1;" d="M 163.277344 37.597656 C 163.523438 37.597656 164.011719 37.597656 164.257812 37.597656 C 165.726562 37.351562 167.445312 36.863281 168.914062 36.617188 C 171.613281 36.128906 173.328125 33.675781 172.839844 30.976562 C 172.347656 28.035156 169.894531 26.320312 167.199219 26.808594 C 165.484375 27.054688 163.765625 27.546875 162.296875 27.789062 C 159.597656 28.28125 157.882812 30.976562 158.617188 33.675781 C 158.863281 35.882812 160.824219 37.597656 163.277344 37.597656 Z M 163.277344 37.597656 "/>
<path style=" stroke:none;fill-rule:nonzero;fill:rgb(0%,0%,0%);fill-opacity:1;" d="M 243.203125 320.042969 C 243.695312 320.042969 244.183594 320.042969 244.921875 319.796875 C 246.636719 319.308594 248.109375 318.574219 249.578125 318.082031 C 252.03125 317.101562 253.257812 314.160156 252.277344 311.707031 C 251.296875 309.257812 248.351562 308.03125 245.902344 309.011719 C 244.429688 309.5 242.960938 310.238281 241.488281 310.726562 C 239.035156 311.707031 237.566406 314.40625 238.546875 316.855469 C 239.28125 318.816406 241.242188 320.042969 243.203125 320.042969 Z M 243.203125 320.042969 "/>
<path style=" stroke:none;fill-rule:nonzero;fill:rgb(0%,0%,0%);fill-opacity:1;" d="M 221.875 325.929688 C 222.121094 325.929688 222.363281 325.929688 222.855469 325.929688 C 224.570312 325.683594 226.289062 325.191406 227.757812 324.949219 C 230.457031 324.457031 232.171875 321.761719 231.4375 319.0625 C 230.945312 316.367188 228.25 314.648438 225.550781 315.386719 C 224.082031 315.628906 222.363281 316.121094 220.894531 316.367188 C 218.195312 316.855469 216.480469 319.554688 216.96875 322.003906 C 217.460938 324.210938 219.667969 325.929688 221.875 325.929688 Z M 221.875 325.929688 "/>
<path style=" stroke:none;fill-rule:nonzero;fill:rgb(0%,0%,0%);fill-opacity:1;" d="M 227.757812 38.089844 C 229.230469 38.578125 230.945312 38.824219 232.417969 39.3125 C 232.90625 39.3125 233.398438 39.558594 233.644531 39.558594 C 235.847656 39.558594 237.8125 38.089844 238.300781 35.882812 C 239.035156 33.183594 237.566406 30.488281 234.867188 29.753906 C 233.152344 29.261719 231.679688 28.773438 229.964844 28.527344 C 227.269531 27.789062 224.570312 29.507812 224.082031 32.203125 C 223.34375 34.902344 225.0625 37.351562 227.757812 38.089844 Z M 227.757812 38.089844 "/>
<path style=" stroke:none;fill-rule:nonzero;fill:rgb(0%,0%,0%);fill-opacity:1;" d="M 247.863281 44.707031 C 249.335938 45.199219 250.804688 45.933594 252.277344 46.667969 C 253.011719 46.914062 253.503906 47.160156 254.238281 47.160156 C 255.707031 47.160156 257.179688 46.425781 258.160156 45.199219 L 258.160156 39.070312 C 257.671875 38.578125 257.179688 37.84375 256.445312 37.597656 C 254.972656 36.863281 253.257812 36.128906 251.785156 35.636719 C 249.335938 34.65625 246.390625 35.882812 245.410156 38.332031 C 244.183594 40.785156 245.410156 43.480469 247.863281 44.707031 Z M 247.863281 44.707031 "/>
<path style=" stroke:none;fill-rule:nonzero;fill:rgb(0%,0%,0%);fill-opacity:1;" d="M 332.203125 112.378906 C 331.960938 111.886719 331.714844 111.398438 331.222656 110.90625 C 329.261719 111.886719 326.8125 112.621094 324.359375 112.621094 L 323.378906 112.621094 C 322.886719 113.847656 322.886719 115.074219 323.625 116.300781 C 324.359375 117.769531 324.847656 119.242188 325.585938 120.714844 C 326.320312 122.675781 328.28125 123.65625 329.996094 123.65625 C 330.734375 123.65625 331.222656 123.410156 331.960938 123.164062 C 334.410156 122.183594 335.636719 119.242188 334.65625 116.789062 C 333.675781 115.320312 332.941406 113.847656 332.203125 112.378906 Z M 332.203125 112.378906 "/>
<path style=" stroke:none;fill-rule:nonzero;fill:rgb(0%,0%,0%);fill-opacity:1;" d="M 329.015625 235.949219 C 326.566406 234.722656 323.625 235.703125 322.398438 238.152344 C 322.152344 238.890625 321.660156 239.378906 321.417969 240.117188 L 331.714844 240.117188 C 331.714844 238.398438 330.734375 236.683594 329.015625 235.949219 Z M 329.015625 235.949219 "/>
<path style=" stroke:none;fill-rule:nonzero;fill:rgb(0%,0%,0%);fill-opacity:1;" d="M 56.378906 240.117188 L 66.1875 240.117188 C 66.429688 239.136719 66.1875 238.152344 65.695312 237.171875 C 64.960938 235.703125 64.46875 234.230469 63.734375 232.761719 C 62.753906 230.308594 59.8125 229.082031 57.359375 230.308594 C 54.90625 231.289062 53.683594 234.230469 54.90625 236.683594 C 55.398438 237.910156 55.886719 239.136719 56.378906 240.117188 Z M 56.378906 240.117188 "/>
<g clip-path="url(#clip1)" clip-rule="nonzero">
<path style=" stroke:none;fill-rule:nonzero;fill:rgb(0%,0%,0%);fill-opacity:1;" d="M 47.308594 313.667969 L 111.054688 313.667969 C 116.449219 313.667969 120.859375 309.253906 120.859375 303.863281 L 120.859375 259.730469 C 120.859375 254.335938 116.449219 249.921875 111.054688 249.921875 L 47.308594 249.921875 C 41.914062 249.921875 37.5 254.335938 37.5 259.730469 L 37.5 303.863281 C 37.5 309.253906 41.914062 313.667969 47.308594 313.667969 Z M 47.308594 259.730469 L 111.054688 259.730469 L 111.054688 303.863281 L 47.308594 303.863281 Z M 47.308594 259.730469 "/>
</g>
<g clip-path="url(#clip2)" clip-rule="nonzero">
<path style=" stroke:none;fill-rule:nonzero;fill:rgb(0%,0%,0%);fill-opacity:1;" d="M 93.890625 333.285156 C 96.589844 333.285156 98.792969 331.078125 98.792969 328.378906 C 98.792969 325.683594 96.589844 323.476562 93.890625 323.476562 L 64.46875 323.476562 C 61.773438 323.476562 59.566406 325.683594 59.566406 328.378906 C 59.566406 331.078125 61.773438 333.285156 64.46875 333.285156 Z M 93.890625 333.285156 "/>
</g>
<g clip-path="url(#clip3)" clip-rule="nonzero">
<path style=" stroke:none;fill-rule:nonzero;fill:rgb(0%,0%,0%);fill-opacity:1;" d="M 341.519531 249.921875 L 277.773438 249.921875 C 272.382812 249.921875 267.96875 254.335938 267.96875 259.730469 L 267.96875 303.863281 C 267.96875 309.253906 272.382812 313.667969 277.773438 313.667969 L 341.519531 313.667969 C 346.914062 313.667969 351.328125 309.253906 351.328125 303.863281 L 351.328125 259.730469 C 351.328125 254.335938 346.914062 249.921875 341.519531 249.921875 Z M 341.519531 303.863281 L 277.773438 303.863281 L 277.773438 259.730469 L 341.519531 259.730469 Z M 341.519531 303.863281 "/>
</g>
<g clip-path="url(#clip4)" clip-rule="nonzero">
<path style=" stroke:none;fill-rule:nonzero;fill:rgb(0%,0%,0%);fill-opacity:1;" d="M 324.359375 333.285156 C 327.054688 333.285156 329.261719 331.078125 329.261719 328.378906 C 329.261719 325.683594 327.054688 323.476562 324.359375 323.476562 L 294.9375 323.476562 C 292.242188 323.476562 290.035156 325.683594 290.035156 328.378906 C 290.035156 331.078125 292.242188 333.285156 294.9375 333.285156 Z M 324.359375 333.285156 "/>
</g>
<g clip-path="url(#clip5)" clip-rule="nonzero">
<path style=" stroke:none;fill-rule:nonzero;fill:rgb(0%,0%,0%);fill-opacity:1;" d="M 47.308594 83.203125 L 111.054688 83.203125 C 116.449219 83.203125 120.859375 78.789062 120.859375 73.394531 L 120.859375 29.261719 C 120.859375 23.867188 116.449219 19.453125 111.054688 19.453125 L 47.308594 19.453125 C 41.914062 19.453125 37.5 23.867188 37.5 29.261719 L 37.5 73.394531 C 37.5 78.789062 41.914062 83.203125 47.308594 83.203125 Z M 47.308594 29.261719 L 111.054688 29.261719 L 111.054688 73.394531 L 47.308594 73.394531 Z M 47.308594 29.261719 "/>
</g>
<path style=" stroke:none;fill-rule:nonzero;fill:rgb(0%,0%,0%);fill-opacity:1;" d="M 98.792969 97.910156 C 98.792969 95.214844 96.589844 93.007812 93.890625 93.007812 L 64.46875 93.007812 C 61.773438 93.007812 59.566406 95.214844 59.566406 97.910156 C 59.566406 100.609375 61.773438 102.816406 64.46875 102.816406 L 93.890625 102.816406 C 96.589844 102.816406 98.792969 100.609375 98.792969 97.910156 Z M 98.792969 97.910156 "/>
<g clip-path="url(#clip6)" clip-rule="nonzero">
<path style=" stroke:none;fill-rule:nonzero;fill:rgb(0%,0%,0%);fill-opacity:1;" d="M 341.519531 19.453125 L 277.773438 19.453125 C 272.382812 19.453125 267.96875 23.867188 267.96875 29.261719 L 267.96875 73.394531 C 267.96875 78.789062 272.382812 83.203125 277.773438 83.203125 L 341.519531 83.203125 C 346.914062 83.203125 351.328125 78.789062 351.328125 73.394531 L 351.328125 29.261719 C 351.328125 23.867188 346.914062 19.453125 341.519531 19.453125 Z M 341.519531 73.394531 L 277.773438 73.394531 L 277.773438 29.261719 L 341.519531 29.261719 Z M 341.519531 73.394531 "/>
</g>
<path style=" stroke:none;fill-rule:nonzero;fill:rgb(0%,0%,0%);fill-opacity:1;" d="M 324.359375 93.007812 L 294.9375 93.007812 C 292.242188 93.007812 290.035156 95.214844 290.035156 97.910156 C 290.035156 100.609375 292.242188 102.816406 294.9375 102.816406 L 324.359375 102.816406 C 327.054688 102.816406 329.261719 100.609375 329.261719 97.910156 C 329.261719 95.214844 327.054688 93.007812 324.359375 93.007812 Z M 324.359375 93.007812 "/>
<path style=" stroke:none;fill-rule:nonzero;fill:rgb(0%,0%,0%);fill-opacity:1;" d="M 154.449219 168.03125 C 155.429688 171.710938 155.1875 175.878906 153.222656 179.3125 C 151.261719 182.742188 148.320312 185.195312 144.398438 186.421875 C 143.171875 186.910156 141.699219 186.910156 140.230469 186.910156 C 133.855469 186.910156 127.972656 182.5 126.007812 176.367188 C 124.539062 170.976562 118.652344 170.484375 118.164062 170.238281 C 114.484375 169.996094 110.808594 168.277344 108.113281 165.335938 C 107.128906 164.355469 106.394531 163.128906 105.90625 161.902344 C 95.851562 168.523438 88.988281 180.046875 88.988281 193.285156 C 88.988281 213.636719 104.925781 230.308594 124.539062 230.308594 L 259.875 230.308594 C 260.121094 230.308594 260.367188 230.308594 260.859375 230.308594 C 282.921875 229.328125 299.839844 210.695312 299.839844 187.648438 C 299.839844 166.316406 284.148438 148.171875 264.289062 145.230469 C 260.859375 118.507812 239.035156 97.910156 212.558594 97.910156 C 194.90625 97.910156 178.722656 107.230469 169.160156 122.183594 C 165.238281 120.714844 161.316406 119.976562 157.148438 119.976562 C 142.925781 119.976562 130.667969 128.804688 125.027344 141.308594 C 135.328125 143.761719 149.300781 150.871094 154.449219 168.03125 Z M 154.449219 168.03125 "/>
<path style=" stroke:none;fill-rule:nonzero;fill:rgb(0%,0%,0%);fill-opacity:1;" d="M 135.570312 173.425781 C 136.308594 175.632812 138.269531 176.859375 140.230469 176.859375 C 140.71875 176.859375 141.210938 176.859375 141.699219 176.613281 C 144.398438 175.878906 145.867188 173.183594 145.132812 170.484375 C 139.738281 151.605469 120.617188 150.378906 119.636719 150.378906 C 116.9375 150.136719 114.730469 152.339844 114.484375 155.039062 C 114.242188 157.734375 116.449219 159.941406 119.144531 160.1875 C 119.636719 160.433594 132.140625 161.414062 135.570312 173.425781 Z M 135.570312 173.425781 "/>
</g>
</svg>
