<svg width="67" height="72" viewBox="0 0 67 72" fill="none" xmlns="http://www.w3.org/2000/svg">
<path d="M19.7583 40.8548C20.4799 41.0433 21.2189 41.1445 21.9614 41.1567C23.8232 41.1562 25.6427 40.5606 27.188 39.4459L34.7349 46.6664C34.137 47.885 33.7862 49.2257 33.7054 50.6002C33.6246 51.9747 33.8157 53.3521 34.2661 54.6417C34.7392 56.1029 35.5198 57.4273 36.5472 58.5121C37.5745 59.5969 38.8211 60.4129 40.1899 60.8966C41.5587 61.3804 43.013 61.5188 44.4398 61.3013C45.8666 61.0838 47.2275 60.5161 48.4167 59.6423C49.6059 58.7686 50.5915 57.6123 51.2968 56.2633C52.0022 54.9144 52.4083 53.409 52.4837 51.8642C52.559 50.3193 52.3016 48.7767 51.7314 47.356C51.1612 45.9353 50.2935 44.6749 49.1958 43.6726L55.1489 30.8669C56.3109 31.1482 57.5138 31.1751 58.6856 30.946C59.8575 30.7169 60.9743 30.2365 61.9692 29.5335C63.6589 28.4266 64.9788 26.7741 65.7398 24.8126C66.5009 22.8512 66.664 20.6815 66.2059 18.6144C65.7478 16.5473 64.692 14.6889 63.1896 13.3054C61.6873 11.922 59.8155 11.0845 57.8426 10.9129C55.8696 10.7413 53.8967 11.2444 52.2064 12.3502C50.5162 13.456 49.1954 15.1077 48.4332 17.0686C47.6711 19.0296 47.5067 21.1992 47.9637 23.2666C48.4206 25.3339 49.4755 27.193 50.977 28.5774L45.0239 41.3831C44.3774 41.2306 43.7172 41.1546 43.0552 41.1567C41.1934 41.1572 39.3739 41.7528 37.8286 42.8675L30.2817 35.647C30.8796 34.4284 31.2304 33.0877 31.3112 31.7132C31.392 30.3387 31.2009 28.9613 30.7505 27.6717C30.2809 26.2212 29.5082 24.9052 28.4917 23.8246C27.4752 22.744 26.2417 21.9275 24.8859 21.4376C23.53 20.9477 22.0877 20.7974 20.6693 20.9981C19.251 21.1989 17.8943 21.7454 16.703 22.5959C15.5118 23.4464 14.5178 24.5782 13.7969 25.9047C13.0761 27.2312 12.6477 28.7172 12.5444 30.2488C12.4412 31.7805 12.6659 33.3172 13.2013 34.7413C13.7367 36.1654 14.5686 37.439 15.6333 38.4647L5.55518 58.7677V0.903076H0.867676V66.3152C0.867676 67.6497 1.36154 68.9295 2.24061 69.8732C3.11969 70.8168 4.31197 71.3469 5.55518 71.3469H66.4927V66.3152H7.12549L19.7583 40.8548ZM57.1177 15.9982C58.0448 15.9982 58.9511 16.2933 59.7219 16.8462C60.4928 17.3991 61.0936 18.1849 61.4484 19.1043C61.8031 20.0238 61.896 21.0355 61.7151 22.0115C61.5342 22.9876 61.0878 23.8841 60.4322 24.5878C59.7767 25.2915 58.9414 25.7708 58.0322 25.9649C57.1229 26.1591 56.1804 26.0594 55.3238 25.6786C54.4673 25.2977 53.7352 24.6528 53.2202 23.8254C52.7051 22.9979 52.4302 22.0251 52.4302 21.0299C52.4302 19.6954 52.924 18.4156 53.8031 17.4719C54.6822 16.5283 55.8745 15.9982 57.1177 15.9982ZM47.7427 51.2201C47.7427 52.2153 47.4678 53.1881 46.9527 54.0156C46.4376 54.843 45.7055 55.488 44.849 55.8688C43.9925 56.2496 43.05 56.3493 42.1407 56.1551C41.2314 55.961 40.3962 55.4818 39.7406 54.7781C39.0851 54.0744 38.6386 53.1778 38.4577 52.2017C38.2769 51.2257 38.3697 50.214 38.7245 49.2946C39.0793 48.3751 39.6801 47.5893 40.4509 47.0364C41.2218 46.4835 42.1281 46.1884 43.0552 46.1884C44.2984 46.1884 45.4907 46.7185 46.3697 47.6622C47.2488 48.6058 47.7427 49.8856 47.7427 51.2201ZM21.9614 26.0616C22.8885 26.0616 23.7948 26.3567 24.5657 26.9096C25.3365 27.4625 25.9373 28.2483 26.2921 29.1677C26.6469 30.0872 26.7397 31.0989 26.5589 32.0749C26.378 33.051 25.9315 33.9476 25.276 34.6512C24.6204 35.3549 23.7852 35.8342 22.8759 36.0283C21.9666 36.2225 21.0241 36.1228 20.1676 35.742C19.3111 35.3611 18.579 34.7162 18.0639 33.8888C17.5488 33.0613 17.2739 32.0885 17.2739 31.0933C17.2739 29.7588 17.7678 28.479 18.6469 27.5353C19.5259 26.5917 20.7182 26.0616 21.9614 26.0616Z" fill="black"/>
</svg>
