<svg width="64" height="77" viewBox="0 0 64 77" fill="none" xmlns="http://www.w3.org/2000/svg">
<path d="M31.6802 13.4922L31.6802 76.8279" stroke="black" stroke-width="5"/>
<path d="M42.2179 7.58594V7.58594C45.8759 13.3392 45.8759 20.689 42.2179 26.4422V26.4422" stroke="black" stroke-width="5"/>
<path d="M22.597 7.58594V7.58594C18.9391 13.3392 18.9391 20.689 22.597 26.4422V26.4422" stroke="black" stroke-width="5"/>
<path d="M48.2126 4.77515V4.77515C53.4935 13.081 53.4935 23.6918 48.2126 31.9976V31.9976" stroke="black" stroke-width="5"/>
<path d="M16.6028 4.77515V4.77515C11.3219 13.081 11.3219 23.6918 16.6028 31.9976V31.9976" stroke="black" stroke-width="5"/>
<path d="M53.3668 1.82812V1.82812C59.791 11.9322 59.791 24.8403 53.3668 34.9444V34.9444" stroke="black" stroke-width="5"/>
<path d="M10.8705 1.82812V1.82812C4.44629 11.9322 4.44629 24.8403 10.8705 34.9444V34.9444" stroke="black" stroke-width="5"/>
</svg>
