<?xml version="1.0" encoding="UTF-8"?>
<svg xmlns="http://www.w3.org/2000/svg" xmlns:xlink="http://www.w3.org/1999/xlink" width="375pt" height="374.999991pt" viewBox="0 0 375 374.999991" version="1.2">
<defs>
<clipPath id="clip1">
  <path d="M 10.820312 53.222656 L 363.964844 53.222656 L 363.964844 321.675781 L 10.820312 321.675781 Z M 10.820312 53.222656 "/>
</clipPath>
</defs>
<g id="surface1">
<g clip-path="url(#clip1)" clip-rule="nonzero">
<path style=" stroke:none;fill-rule:nonzero;fill:rgb(0%,0%,0%);fill-opacity:1;" d="M 356.902344 53.222656 L 17.886719 53.222656 C 13.988281 53.222656 10.824219 56.390625 10.824219 60.289062 L 10.824219 272.226562 C 10.824219 276.132812 13.988281 279.289062 17.886719 279.289062 L 180.332031 279.289062 L 180.332031 307.546875 L 130.890625 307.546875 C 126.992188 307.546875 123.828125 310.707031 123.828125 314.613281 C 123.828125 318.519531 126.992188 321.675781 130.890625 321.675781 L 243.894531 321.675781 C 247.800781 321.675781 250.957031 318.519531 250.957031 314.613281 C 250.957031 310.707031 247.800781 307.546875 243.894531 307.546875 L 194.457031 307.546875 L 194.457031 279.289062 L 356.902344 279.289062 C 360.804688 279.289062 363.964844 276.132812 363.964844 272.226562 L 363.964844 60.289062 C 363.964844 56.390625 360.804688 53.222656 356.902344 53.222656 Z M 349.835938 265.160156 L 24.949219 265.160156 L 24.949219 67.351562 L 349.835938 67.351562 Z M 349.835938 265.160156 "/>
</g>
</g>
</svg>
