<?xml version="1.0" encoding="utf-8"?>
<!-- Generator: Adobe Illustrator 26.2.1, SVG Export Plug-In . SVG Version: 6.00 Build 0)  -->
<svg version="1.1" id="Capa_1" xmlns="http://www.w3.org/2000/svg" xmlns:xlink="http://www.w3.org/1999/xlink" x="0px" y="0px"
	 viewBox="0 0 1920 1080" style="enable-background:new 0 0 1920 1080;" xml:space="preserve">
<style type="text/css">
	.st0{fill:#2C2A29;}
</style>
<g>
	<path class="st0" d="M1159.42,236.84c17.29-3.89,34.8-5.84,52.53-5.84c18.16,0,35.67,1.95,52.53,5.84l-111.54,426.07
		c-19.46,3.46-38.48,5.19-57.07,5.19c-16.86,0-36.1-1.73-57.72-5.19l-77.82-285.99l-79.12,285.99c-19.46,3.46-38.05,5.19-55.77,5.19
		c-16.86,0-36.1-1.73-57.72-5.19L655.52,236.84c17.73-3.89,35.24-5.84,52.53-5.84c17.73,0,35.24,1.95,52.53,5.84l72.63,300.26
		l70.04-300.26c18.16-3.89,37.18-5.84,57.07-5.84c19.89,0,38.48,1.95,55.77,5.84l84.31,301.56L1159.42,236.84z"/>
	<path class="st0" d="M751.71,833.68v-66.64c0-6.69,4.68-12.44,11.27-13.64c32.53-5.98,129.43-22.44,209.87-22.44
		c80.64,0,180.17,16.54,213.32,22.48c6.62,1.19,11.33,6.94,11.33,13.66v66.92c0,9.67-9.62,16.8-19.02,14.56
		c-30.22-7.22-97.14-19.34-205.62-19.34c-107.19,0-172.12,11.84-201.8,19.08C761.54,850.64,751.71,843.45,751.71,833.68z"/>
</g>
</svg>
